<svg width="12" height="12" viewBox="0 0 12 12" fill="none" xmlns="http://www.w3.org/2000/svg">
<path fill-rule="evenodd" clip-rule="evenodd" d="M6.70703 0.626206C6.3165 0.235682 5.68334 0.235682 5.29281 0.626206C4.90229 1.01673 4.90229 1.6499 5.29281 2.04042L7.62615 4.37375C7.64184 4.38944 7.65804 4.40461 7.67474 4.41922L8.33846 4.99998H1.33325C0.780967 4.99998 0.333252 5.44769 0.333252 5.99998C0.333252 6.55226 0.780967 6.99998 1.33325 6.99998H8.46291L5.3176 9.93559C4.91385 10.3124 4.89203 10.9452 5.26886 11.349C5.6457 11.7527 6.27848 11.7745 6.68224 11.3977L11.6822 6.73106C11.889 6.53812 12.0043 6.26669 11.9998 5.98395C11.9953 5.70122 11.8712 5.43363 11.6584 5.24743L9.01682 2.936L6.70703 0.626206Z" fill="#22272F"/>
</svg>
