<svg width="20" height="20" viewBox="0 0 20 20" fill="none" xmlns="http://www.w3.org/2000/svg">
<path opacity="0.4" fill-rule="evenodd" clip-rule="evenodd" d="M12.6977 3.09297C10.8884 3.69606 8.80531 5.00756 6.90642 6.90645C6.66234 7.15053 6.26661 7.15053 6.02254 6.90645C5.77846 6.66237 5.77846 6.26664 6.02254 6.02256C8.02889 4.01621 10.2728 2.58363 12.3024 1.90711C14.2923 1.24382 16.2791 1.25314 17.513 2.48703C18.7469 3.72092 18.7562 5.70779 18.0929 7.69768C17.8443 8.44365 17.4935 9.21858 17.0496 10C17.4935 10.7815 17.8443 11.5564 18.0929 12.3023C18.7562 14.2922 18.7469 16.2791 17.513 17.513C17.2689 17.7571 16.8732 17.7571 16.6291 17.513C16.385 17.2689 16.385 16.8732 16.6291 16.6291C17.3478 15.9104 17.5234 14.5466 16.9071 12.6976C16.7481 12.2208 16.54 11.7249 16.2848 11.2184C15.6382 12.1585 14.8638 13.0912 13.9775 13.9775C13.7334 14.2216 13.3377 14.2216 13.0936 13.9775C12.8495 13.7334 12.8495 13.3377 13.0936 13.0936C14.0959 12.0913 14.9346 11.0376 15.5918 10C14.9346 8.9624 14.0959 7.90873 13.0936 6.90638C12.8495 6.66231 12.8495 6.26658 13.0936 6.0225C13.3377 5.77842 13.7334 5.77842 13.9775 6.0225C14.8638 6.90883 15.6382 7.84153 16.2848 8.78163C16.54 8.27513 16.7481 7.77925 16.9071 7.3024C17.5234 5.45345 17.3479 4.08965 16.6291 3.37091C15.9104 2.65218 14.5466 2.47665 12.6977 3.09297ZM9.99998 10.8334C10.4602 10.8334 10.8333 10.4603 10.8333 10C10.8333 9.53979 10.4602 9.16669 9.99998 9.16669C9.53974 9.16669 9.16665 9.53979 9.16665 10C9.16665 10.4603 9.53974 10.8334 9.99998 10.8334Z" fill="white"/>
<path fill-rule="evenodd" clip-rule="evenodd" d="M3.0929 7.30234C3.25186 7.77921 3.46003 8.2751 3.71519 8.78162C4.36185 7.84154 5.1362 6.90887 6.02251 6.02255C6.26659 5.77848 6.66231 5.77848 6.90639 6.02255C7.15047 6.26663 7.15047 6.66236 6.90639 6.90644C5.90406 7.90876 5.0654 8.96241 4.40819 10C5.0654 11.0376 5.90406 12.0912 6.90638 13.0936C7.90873 14.0959 8.96239 14.9346 10 15.5918C11.0376 14.9346 12.0913 14.0959 13.0936 13.0936C13.3377 12.8495 13.7334 12.8495 13.9775 13.0936C14.2215 13.3377 14.2215 13.7334 13.9775 13.9775C13.0912 14.8638 12.1585 15.6381 11.2184 16.2848C11.7249 16.5399 12.2208 16.7481 12.6976 16.9071C14.5466 17.5234 15.9104 17.3478 16.6291 16.6291C16.8732 16.385 17.2689 16.385 17.513 16.6291C17.7571 16.8732 17.7571 17.2689 17.513 17.513C16.2791 18.7469 14.2922 18.7562 12.3023 18.0929C11.5564 17.8443 10.7815 17.4935 10 17.0496C9.21856 17.4935 8.44361 17.8443 7.69763 18.093C5.70774 18.7563 3.72086 18.7469 2.48697 17.513C1.25309 16.2792 1.24376 14.2923 1.90706 12.3024C2.15571 11.5564 2.50652 10.7815 2.95041 10C2.50651 9.21855 2.15571 8.4436 1.90705 7.69762C1.24375 5.70773 1.25308 3.72085 2.48697 2.48697C3.72085 1.25308 5.70773 1.24375 7.69762 1.90705C9.72716 2.58356 11.9711 4.01615 13.9775 6.0225C14.2215 6.26658 14.2215 6.66231 13.9775 6.90639C13.7334 7.15046 13.3376 7.15046 13.0936 6.90639C11.1947 5.0075 9.11163 3.696 7.30233 3.0929C5.45339 2.47659 4.08958 2.65212 3.37085 3.37085C2.65212 4.08959 2.47659 5.45339 3.0929 7.30234ZM3.09291 12.6977C3.25187 12.2208 3.46003 11.7249 3.71519 11.2184C4.36185 12.1585 5.13619 13.0911 6.0225 13.9775C6.90883 14.8638 7.84153 15.6381 8.78163 16.2848C8.2751 16.54 7.77921 16.7481 7.30234 16.9071C5.45339 17.5234 4.08959 17.3479 3.37086 16.6292C2.65212 15.9104 2.47659 14.5466 3.09291 12.6977ZM9.99996 10.8333C10.4602 10.8333 10.8333 10.4602 10.8333 10C10.8333 9.53977 10.4602 9.16667 9.99996 9.16667C9.53972 9.16667 9.16663 9.53977 9.16663 10C9.16663 10.4602 9.53972 10.8333 9.99996 10.8333Z" fill="white"/>
</svg>
