<svg width="40" height="40" viewBox="0 0 40 40" fill="none" xmlns="http://www.w3.org/2000/svg">
<circle cx="20" cy="20" r="20" fill="#EABD48"/>
<path d="M13.4189 20L10.7189 22.7189L8 20L10.7189 17.2811L13.4189 20ZM20 13.4189L24.6503 18.0692L27.3692 15.3503L22.7195 10.7189L20 8L12.6497 15.3497L15.3686 18.0686L20 13.4189ZM29.2811 17.2811L26.5811 20L29.3 22.7189L32 20L29.2811 17.2811ZM20 26.5811L15.3503 21.9308L12.6503 24.6497L20 32L27.3686 24.6314L24.6497 21.9314L20 26.5811ZM20 22.7189L22.7189 20L20 17.2811L17.2811 20L20 22.7189Z" fill="#FFFDFA"/>
</svg>
