<svg width="20" height="20" viewBox="0 0 20 20" fill="none" xmlns="http://www.w3.org/2000/svg">
<g clip-path="url(#clip0_40_289)">
<path d="M18.9308 8.79117C18.1348 6.05609 17.237 4.64289 17.2225 4.61754C17.1714 4.55508 15.9028 3.03695 12.8452 1.91406L12.4412 3.01406C13.8958 3.54828 14.9277 4.2 15.4953 4.62109C13.8009 4.11512 11.7852 3.80523 10 3.80523C8.21477 3.80523 6.1991 4.11512 4.50473 4.62109C5.07223 4.20004 6.10418 3.54828 7.55875 3.01406L7.15473 1.91406C4.09727 3.03695 2.82867 4.55508 2.7775 4.61754C2.76301 4.64289 1.86523 6.05609 1.06922 8.79117C0.302031 11.427 0.0105859 15.1453 0 15.2944C0.0683594 15.4013 1.64062 18.0856 5.92551 18.0856L7.0116 16.5129C5.7948 16.1898 4.63453 15.6688 3.57242 14.9618L4.22176 13.9863C5.93523 15.1268 7.93332 15.7297 10 15.7297C12.0667 15.7297 14.0648 15.1268 15.7782 13.9863L16.4276 14.9618C15.3655 15.6688 14.2052 16.1898 12.9884 16.5129L14.0745 18.0856C18.3594 18.0856 19.9316 15.4013 20 15.2944C19.9894 15.1453 19.698 11.427 18.9308 8.79117ZM7.2907 11.8569H6.11883V9.90375H7.2907V11.8569ZM13.8812 11.8569H12.7093V9.90375H13.8812V11.8569Z" fill="white"/>
</g>
<defs>
<clipPath id="clip0_40_289">
<rect width="20" height="20" fill="white"/>
</clipPath>
</defs>
</svg>
