<svg width="64" height="64" viewBox="0 0 64 64" fill="none" xmlns="http://www.w3.org/2000/svg">
<rect opacity="0.15" y="16" width="48" height="48" rx="10" fill="#C03221"/>
<g filter="url(#filter0_b_40_256)">
<rect x="12" y="4" width="48" height="48" rx="10" fill="#C03221"/>
<rect x="10" y="2" width="52" height="52" rx="12" stroke="white" stroke-opacity="0.3" stroke-width="4"/>
</g>
<path opacity="0.4" fill-rule="evenodd" clip-rule="evenodd" d="M36 25.75C34.7574 25.75 33.75 26.7574 33.75 28C33.75 29.2426 34.7574 30.25 36 30.25C37.2426 30.25 38.25 29.2426 38.25 28C38.25 26.7574 37.2426 25.75 36 25.75ZM32.25 28C32.25 25.9289 33.9289 24.25 36 24.25C38.0711 24.25 39.75 25.9289 39.75 28C39.75 30.0711 38.0711 31.75 36 31.75C33.9289 31.75 32.25 30.0711 32.25 28Z" fill="white"/>
<path d="M30.5 37.5262L30.875 36.8767H30.875L30.5 37.5262ZM29.3661 36.7615L29.9214 36.2573H29.9213L29.3661 36.7615ZM31.7293 38.1259L31.8882 37.3929L31.8882 37.3929L31.7293 38.1259ZM33.2851 37.8201L33.7096 38.4384L33.7096 38.4384L33.2851 37.8201ZM34.1961 36.7999L33.6032 36.3406L34.1961 36.7999ZM34.8764 35.9218L34.9808 35.1791C34.7144 35.1416 34.4483 35.2497 34.2835 35.4624L34.8764 35.9218ZM37.1234 35.9218L37.7163 35.4625C37.5516 35.2498 37.2855 35.1416 37.0191 35.1791L37.1234 35.9218ZM37.8039 36.8001L37.211 37.2594L37.8039 36.8001ZM38.7148 37.8203L39.1393 37.202L39.1393 37.202L38.7148 37.8203ZM40.2707 38.126L40.4297 38.859H40.4297L40.2707 38.126ZM41.5 37.5264L41.125 36.8769H41.125L41.5 37.5264ZM42.6339 36.7616L42.0786 36.2575L42.0786 36.2575L42.6339 36.7616ZM43.1471 35.2613L42.3994 35.3198V35.3198L43.1471 35.2613ZM42.7191 33.9623L42.0075 34.1995C42.0128 34.2152 42.0186 34.2308 42.0248 34.2461L42.7191 33.9623ZM42.719 33.9623L43.4306 33.7251C43.4253 33.7094 43.4196 33.6938 43.4133 33.6785L42.719 33.9623ZM42.2984 32.9332L41.7082 32.4703C41.5419 32.6824 41.5021 32.9675 41.6041 33.217L42.2984 32.9332ZM43.4234 30.9878L43.3221 30.2446C43.0553 30.281 42.8284 30.4577 42.7278 30.7075L43.4234 30.9878ZM44.5229 30.8378L44.4216 30.0947H44.4216L44.5229 30.8378ZM45.8619 30.559L46.1852 31.2358L46.1852 31.2358L45.8619 30.559ZM46.9046 29.3644L46.1904 29.1356V29.1356L46.9046 29.3644ZM46.9046 26.6356L46.1904 26.8645V26.8645L46.9046 26.6356ZM45.8619 25.4411L45.5387 26.1179L45.8619 25.4411ZM44.5229 25.1623L44.4216 25.9054L44.5229 25.1623ZM43.4234 25.0123L42.7278 25.2926C42.8284 25.5424 43.0553 25.7191 43.3221 25.7555L43.4234 25.0123ZM42.2984 23.0669L41.6041 22.7831C41.5021 23.0326 41.5419 23.3176 41.7082 23.5297L42.2984 23.0669ZM42.719 22.0378L43.4133 22.3216C43.4218 22.3009 43.4293 22.2798 43.4359 22.2583L42.719 22.0378ZM42.7191 22.0378L42.0248 21.754C42.0163 21.7747 42.0088 21.7958 42.0022 21.8172L42.7191 22.0378ZM43.1471 20.7388L43.8948 20.7972V20.7972L43.1471 20.7388ZM42.6339 19.2385L42.0786 19.7426L42.0786 19.7426L42.6339 19.2385ZM41.5 18.4737L41.125 19.1232L41.5 18.4737ZM40.2707 17.8741L40.1118 18.607L40.2707 17.8741ZM38.7148 18.1798L38.2903 17.5615V17.5615L38.7148 18.1798ZM37.8039 19.2L37.211 18.7407V18.7407L37.8039 19.2ZM37.1234 20.0783L37.0191 20.821C37.2855 20.8584 37.5516 20.7503 37.7163 20.5376L37.1234 20.0783ZM34.8764 20.0783L34.2835 20.5376C34.4483 20.7503 34.7144 20.8585 34.9808 20.821L34.8764 20.0783ZM34.1961 19.2001L33.6032 19.6595V19.6595L34.1961 19.2001ZM33.2851 18.1799L33.7096 17.5616L33.7096 17.5616L33.2851 18.1799ZM31.7293 17.8742L31.8882 18.6072L31.7293 17.8742ZM30.5 18.4738L30.8625 19.1304C30.8667 19.1281 30.8709 19.1257 30.875 19.1233L30.5 18.4738ZM30.5 18.4738L30.1375 17.8172C30.1192 17.8273 30.1014 17.8382 30.084 17.8498L30.5 18.4738ZM30.5 18.4738L30.875 19.1233C30.8889 19.1153 30.9026 19.1068 30.916 19.0979L30.5 18.4738ZM29.3661 19.2386L28.8108 18.7345L29.3661 19.2386ZM28.8529 20.7389L29.6006 20.6804L28.8529 20.7389ZM29.2809 22.0379L29.9832 21.7746C29.9806 21.7677 29.9779 21.7609 29.9752 21.7541L29.2809 22.0379ZM29.2809 22.0379L28.5787 22.3013C28.5813 22.3081 28.5839 22.315 28.5867 22.3217L29.2809 22.0379ZM29.7016 23.0669L30.2917 23.5298C30.4581 23.3177 30.4978 23.0326 30.3958 22.7831L29.7016 23.0669ZM28.5766 25.0123L28.6779 25.7555C28.9447 25.7191 29.1716 25.5424 29.2722 25.2926L28.5766 25.0123ZM27.4771 25.1623L27.5784 25.9054H27.5784L27.4771 25.1623ZM26.1381 25.4411L25.8148 24.7643L25.8148 24.7643L26.1381 25.4411ZM25.0954 26.6356L25.8096 26.8645L25.8096 26.8645L25.0954 26.6356ZM25.0954 29.3644L25.8096 29.1356L25.8096 29.1356L25.0954 29.3644ZM26.1381 30.559L25.8148 31.2358L25.8148 31.2358L26.1381 30.559ZM27.4771 30.8378L27.5784 30.0947H27.5784L27.4771 30.8378ZM28.5766 30.9878L29.2722 30.7075C29.1716 30.4577 28.9447 30.281 28.6779 30.2446L28.5766 30.9878ZM29.7016 32.9332L30.3958 33.217C30.4978 32.9674 30.4581 32.6824 30.2917 32.4703L29.7016 32.9332ZM29.2809 33.9621L29.9752 34.2459L29.2809 33.9621ZM28.8529 35.2612L29.6006 35.3196V35.3196L28.8529 35.2612ZM30.875 36.8767C30.2114 36.4936 30.0331 36.3805 29.9214 36.2573L28.8108 37.2656C29.1192 37.6053 29.5568 37.8477 30.125 38.1758L30.875 36.8767ZM31.8882 37.3929C31.7257 37.3576 31.5386 37.2599 30.875 36.8767L30.125 38.1758C30.6931 38.5038 31.122 38.7616 31.5703 38.8588L31.8882 37.3929ZM32.8607 37.2018C32.5767 37.3968 32.2249 37.4659 31.8882 37.3929L31.5703 38.8588C32.3109 39.0194 33.0849 38.8673 33.7096 38.4384L32.8607 37.2018ZM33.6032 36.3406C33.1339 36.9464 32.9978 37.1077 32.8607 37.2018L33.7096 38.4384C34.0879 38.1788 34.3872 37.7779 34.789 37.2592L33.6032 36.3406ZM34.2835 35.4624L33.6032 36.3406L34.789 37.2592L35.4693 36.3811L34.2835 35.4624ZM36 35.25C35.6537 35.25 35.3135 35.2258 34.9808 35.1791L34.7721 36.6645C35.1736 36.7209 35.5836 36.75 36 36.75V35.25ZM37.0191 35.1791C36.6865 35.2258 36.3463 35.25 36 35.25V36.75C36.4163 36.75 36.8263 36.7209 37.2278 36.6645L37.0191 35.1791ZM38.3968 36.3407L37.7163 35.4625L36.5305 36.3811L37.211 37.2594L38.3968 36.3407ZM39.1393 37.202C39.0022 37.1078 38.8661 36.9465 38.3968 36.3407L37.211 37.2594C37.6127 37.778 37.9121 38.1789 38.2903 38.4386L39.1393 37.202ZM40.1118 37.393C39.7751 37.4661 39.4233 37.3969 39.1393 37.202L38.2903 38.4386C38.9151 38.8675 39.6891 39.0196 40.4297 38.859L40.1118 37.393ZM41.125 36.8769C40.4614 37.26 40.2743 37.3578 40.1118 37.393L40.4297 38.859C40.878 38.7617 41.3068 38.5039 41.875 38.1759L41.125 36.8769ZM42.0786 36.2575C41.9668 36.3806 41.7886 36.4937 41.125 36.8769L41.875 38.1759C42.4431 37.8479 42.8808 37.6054 43.1892 37.2658L42.0786 36.2575ZM42.3994 35.3198C42.4262 35.6632 42.3102 36.0024 42.0786 36.2575L43.1892 37.2658C43.6986 36.7047 43.9539 35.9583 43.8948 35.2028L42.3994 35.3198ZM42.0248 34.2461C42.3148 34.9554 42.3864 35.154 42.3994 35.3198L43.8948 35.2028C43.859 34.7455 43.6615 34.2857 43.4133 33.6785L42.0248 34.2461ZM42.0075 34.1995L42.0075 34.1995L43.4306 33.7251L43.4306 33.7251L42.0075 34.1995ZM41.6041 33.217L42.0248 34.2461L43.4133 33.6785L42.9926 32.6494L41.6041 33.217ZM42.7278 30.7075C42.4711 31.3447 42.1263 31.9373 41.7082 32.4703L42.8885 33.3961C43.3926 32.7534 43.8089 32.038 44.1191 31.268L42.7278 30.7075ZM44.4216 30.0947L43.3221 30.2446L43.5248 31.7309L44.6243 31.5809L44.4216 30.0947ZM45.5387 29.8822C45.3886 29.9539 45.1809 29.9912 44.4216 30.0947L44.6243 31.5809C45.2743 31.4923 45.7712 31.4335 46.1852 31.2358L45.5387 29.8822ZM46.1904 29.1356C46.0853 29.4636 45.8495 29.7338 45.5387 29.8822L46.1852 31.2358C46.869 30.9092 47.3877 30.3149 47.6189 29.5933L46.1904 29.1356ZM46.25 28C46.25 28.7663 46.2411 28.9772 46.1904 29.1356L47.6189 29.5933C47.7589 29.1564 47.75 28.6561 47.75 28H46.25ZM46.1904 26.8645C46.2411 27.0229 46.25 27.2337 46.25 28H47.75C47.75 27.344 47.7589 26.8437 47.6189 26.4068L46.1904 26.8645ZM45.5387 26.1179C45.8495 26.2663 46.0853 26.5364 46.1904 26.8645L47.6189 26.4068C47.3877 25.6852 46.869 25.0909 46.1852 24.7643L45.5387 26.1179ZM44.4216 25.9054C45.1809 26.0089 45.3886 26.0462 45.5387 26.1179L46.1852 24.7643C45.7712 24.5666 45.2743 24.5078 44.6243 24.4191L44.4216 25.9054ZM43.3221 25.7555L44.4216 25.9054L44.6243 24.4191L43.5248 24.2692L43.3221 25.7555ZM41.7082 23.5297C42.1263 24.0627 42.4711 24.6554 42.7278 25.2926L44.1191 24.7321C43.8089 23.9621 43.3926 23.2467 42.8885 22.604L41.7082 23.5297ZM42.0248 21.754L41.6041 22.7831L42.9926 23.3507L43.4133 22.3216L42.0248 21.754ZM42.0022 21.8172L42.0022 21.8172L43.4359 22.2583L43.4359 22.2583L42.0022 21.8172ZM42.3994 20.6803C42.3864 20.8461 42.3148 21.0447 42.0248 21.754L43.4133 22.3216C43.6615 21.7143 43.859 21.2546 43.8948 20.7972L42.3994 20.6803ZM42.0786 19.7426C42.3102 19.9976 42.4262 20.3369 42.3994 20.6803L43.8948 20.7972C43.9539 20.0417 43.6986 19.2954 43.1892 18.7343L42.0786 19.7426ZM41.125 19.1232C41.7886 19.5064 41.9668 19.6195 42.0786 19.7426L43.1892 18.7343C42.8808 18.3947 42.4431 18.1522 41.875 17.8242L41.125 19.1232ZM40.1118 18.607C40.2743 18.6423 40.4614 18.74 41.125 19.1232L41.875 17.8242C41.3068 17.4961 40.878 17.2383 40.4297 17.1411L40.1118 18.607ZM39.1393 18.7981C39.4233 18.6032 39.7751 18.534 40.1118 18.607L40.4297 17.1411C39.6891 16.9805 38.9151 17.1326 38.2903 17.5615L39.1393 18.7981ZM38.3968 19.6593C38.8661 19.0535 39.0022 18.8922 39.1393 18.7981L38.2903 17.5615C37.9121 17.8211 37.6127 18.2221 37.211 18.7407L38.3968 19.6593ZM37.7163 20.5376L38.3968 19.6593L37.211 18.7407L36.5305 19.619L37.7163 20.5376ZM36 20.75C36.3463 20.75 36.6865 20.7743 37.0191 20.821L37.2278 19.3356C36.8263 19.2792 36.4163 19.25 36 19.25V20.75ZM34.9808 20.821C35.3135 20.7743 35.6537 20.75 36 20.75V19.25C35.5836 19.25 35.1736 19.2792 34.7721 19.3356L34.9808 20.821ZM33.6032 19.6595L34.2835 20.5376L35.4693 19.619L34.789 18.7408L33.6032 19.6595ZM32.8607 18.7983C32.9978 18.8924 33.1339 19.0537 33.6032 19.6595L34.789 18.7408C34.3872 18.2222 34.0879 17.8213 33.7096 17.5616L32.8607 18.7983ZM31.8882 18.6072C32.2249 18.5342 32.5767 18.6033 32.8607 18.7983L33.7096 17.5616C33.0849 17.1327 32.3109 16.9806 31.5703 17.1412L31.8882 18.6072ZM30.875 19.1233C31.5386 18.7402 31.7257 18.6424 31.8882 18.6072L31.5703 17.1412C31.122 17.2385 30.6931 17.4963 30.125 17.8243L30.875 19.1233ZM30.8625 19.1304L30.8625 19.1304L30.1375 17.8172L30.1375 17.8172L30.8625 19.1304ZM30.916 19.0979L30.916 19.0979L30.084 17.8498L30.084 17.8498L30.916 19.0979ZM29.9213 19.7428C30.0331 19.6196 30.2114 19.5065 30.875 19.1233L30.125 17.8243C29.5568 18.1523 29.1192 18.3948 28.8108 18.7345L29.9213 19.7428ZM29.6006 20.6804C29.5738 20.337 29.6898 19.9978 29.9213 19.7428L28.8108 18.7345C28.3014 19.2955 28.0461 20.0419 28.1052 20.7974L29.6006 20.6804ZM29.9752 21.7541C29.6852 21.0448 29.6136 20.8463 29.6006 20.6804L28.1052 20.7974C28.141 21.2547 28.3385 21.7145 28.5867 22.3217L29.9752 21.7541ZM29.9832 21.7746L29.9832 21.7746L28.5787 22.3013L28.5787 22.3013L29.9832 21.7746ZM30.3958 22.7831L29.9752 21.7541L28.5867 22.3217L29.0074 23.3507L30.3958 22.7831ZM29.2722 25.2926C29.5289 24.6554 29.8737 24.0628 30.2917 23.5298L29.1115 22.6041C28.6074 23.2467 28.1911 23.9621 27.8809 24.7321L29.2722 25.2926ZM27.5784 25.9054L28.6779 25.7555L28.4752 24.2692L27.3757 24.4191L27.5784 25.9054ZM26.4613 26.1179C26.6114 26.0462 26.8191 26.0089 27.5784 25.9054L27.3757 24.4191C26.7257 24.5078 26.2288 24.5666 25.8148 24.7643L26.4613 26.1179ZM25.8096 26.8645C25.9147 26.5364 26.1505 26.2663 26.4613 26.1179L25.8148 24.7643C25.131 25.0909 24.6123 25.6852 24.3811 26.4068L25.8096 26.8645ZM25.75 28C25.75 27.2337 25.7589 27.0229 25.8096 26.8645L24.3811 26.4068C24.2411 26.8437 24.25 27.344 24.25 28H25.75ZM25.8096 29.1356C25.7589 28.9772 25.75 28.7663 25.75 28H24.25C24.25 28.6561 24.2411 29.1564 24.3811 29.5933L25.8096 29.1356ZM26.4613 29.8822C26.1505 29.7338 25.9147 29.4636 25.8096 29.1356L24.3811 29.5933C24.6123 30.3149 25.131 30.9092 25.8148 31.2358L26.4613 29.8822ZM27.5784 30.0947C26.8191 29.9912 26.6114 29.9539 26.4613 29.8822L25.8148 31.2358C26.2288 31.4335 26.7257 31.4923 27.3757 31.5809L27.5784 30.0947ZM28.6779 30.2446L27.5784 30.0947L27.3757 31.5809L28.4752 31.7309L28.6779 30.2446ZM30.2917 32.4703C29.8737 31.9373 29.5289 31.3446 29.2722 30.7075L27.8809 31.268C28.1911 32.038 28.6074 32.7533 29.1115 33.396L30.2917 32.4703ZM29.9752 34.2459L30.3958 33.217L29.0074 32.6494L28.5867 33.6783L29.9752 34.2459ZM29.6006 35.3196C29.6136 35.1538 29.6852 34.9553 29.9752 34.2459L28.5867 33.6783C28.3385 34.2856 28.141 34.7453 28.1052 35.2027L29.6006 35.3196ZM29.9213 36.2573C29.6898 36.0023 29.5738 35.663 29.6006 35.3196L28.1052 35.2027C28.0461 35.9582 28.3014 36.7046 28.8108 37.2656L29.9213 36.2573Z" fill="white"/>
<defs>
<filter id="filter0_b_40_256" x="-12" y="-20" width="96" height="96" filterUnits="userSpaceOnUse" color-interpolation-filters="sRGB">
<feFlood flood-opacity="0" result="BackgroundImageFix"/>
<feGaussianBlur in="BackgroundImage" stdDeviation="10"/>
<feComposite in2="SourceAlpha" operator="in" result="effect1_backgroundBlur_40_256"/>
<feBlend mode="normal" in="SourceGraphic" in2="effect1_backgroundBlur_40_256" result="shape"/>
</filter>
</defs>
</svg>
