<svg width="24" height="24" viewBox="0 0 24 24" fill="none" xmlns="http://www.w3.org/2000/svg">
<g opacity="0.4">
<path fill-rule="evenodd" clip-rule="evenodd" d="M17.1696 1.25L17.2 1.25H18.8L18.8304 1.25C19.3646 1.24999 19.8104 1.24998 20.1747 1.27974C20.5546 1.31078 20.9112 1.37789 21.2485 1.54973C21.7659 1.81338 22.1866 2.23408 22.4503 2.75153C22.6221 3.08879 22.6892 3.44545 22.7203 3.82533C22.75 4.18956 22.75 4.6354 22.75 5.16955V5.2V6.8V6.83045C22.75 7.3646 22.75 7.81044 22.7203 8.17467C22.6892 8.55456 22.6221 8.91121 22.4503 9.24848C22.1866 9.76592 21.7659 10.1866 21.2485 10.4503C20.9112 10.6221 20.5546 10.6892 20.1747 10.7203C19.8104 10.75 19.3646 10.75 18.8305 10.75H18.8H17.2H17.1695C16.6354 10.75 16.1896 10.75 15.8253 10.7203C15.4454 10.6892 15.0888 10.6221 14.7515 10.4503C14.2341 10.1866 13.8134 9.76592 13.5497 9.24848C13.3779 8.91121 13.3108 8.55456 13.2797 8.17467C13.25 7.81044 13.25 7.36459 13.25 6.83044L13.25 6.8V5.2L13.25 5.16957C13.25 4.63541 13.25 4.18956 13.2797 3.82533C13.3108 3.44545 13.3779 3.08879 13.5497 2.75153C13.8134 2.23408 14.2341 1.81338 14.7515 1.54973C15.0888 1.37789 15.4454 1.31078 15.8253 1.27974C16.1896 1.24998 16.6354 1.24999 17.1696 1.25ZM15.9475 2.77476C15.6604 2.79822 15.5231 2.8401 15.4325 2.88624C15.1973 3.00608 15.0061 3.19731 14.8862 3.43251C14.8401 3.52307 14.7982 3.66036 14.7748 3.94748C14.7506 4.24336 14.75 4.62757 14.75 5.2V6.8C14.75 7.37243 14.7506 7.75664 14.7748 8.05252C14.7982 8.33965 14.8401 8.47693 14.8862 8.56749C15.0061 8.80269 15.1973 8.99392 15.4325 9.11376C15.5231 9.1599 15.6604 9.20178 15.9475 9.22524C16.2434 9.24942 16.6276 9.25 17.2 9.25H18.8C19.3724 9.25 19.7566 9.24942 20.0525 9.22524C20.3396 9.20178 20.4769 9.1599 20.5675 9.11376C20.8027 8.99392 20.9939 8.80269 21.1138 8.56749C21.1599 8.47693 21.2018 8.33965 21.2252 8.05252C21.2494 7.75664 21.25 7.37243 21.25 6.8V5.2C21.25 4.62757 21.2494 4.24336 21.2252 3.94748C21.2018 3.66036 21.1599 3.52307 21.1138 3.43251C20.9939 3.19731 20.8027 3.00608 20.5675 2.88624C20.4769 2.8401 20.3396 2.79822 20.0525 2.77476C19.7566 2.75058 19.3724 2.75 18.8 2.75H17.2C16.6276 2.75 16.2434 2.75058 15.9475 2.77476Z" fill="#707480"/>
<path fill-rule="evenodd" clip-rule="evenodd" d="M5.16957 1.25L5.2 1.25H6.8L6.83044 1.25C7.36459 1.24999 7.81044 1.24998 8.17467 1.27974C8.55456 1.31078 8.91121 1.37789 9.24848 1.54973C9.76592 1.81339 10.1866 2.23408 10.4503 2.75153C10.6221 3.08879 10.6892 3.44545 10.7203 3.82533C10.75 4.18955 10.75 4.63538 10.75 5.16951V5.16955V5.2V6.8V6.83045V6.8305C10.75 7.36462 10.75 7.81045 10.7203 8.17467C10.6892 8.55456 10.6221 8.91121 10.4503 9.24848C10.1866 9.76592 9.76592 10.1866 9.24848 10.4503C8.91121 10.6221 8.55456 10.6892 8.17467 10.7203C7.81045 10.75 7.36462 10.75 6.8305 10.75H6.83045H6.8H5.2H5.16955H5.16951C4.63538 10.75 4.18955 10.75 3.82533 10.7203C3.44545 10.6892 3.08879 10.6221 2.75153 10.4503C2.23408 10.1866 1.81339 9.76592 1.54973 9.24848C1.37789 8.91121 1.31078 8.55456 1.27974 8.17467C1.24998 7.81044 1.24999 7.36459 1.25 6.83044L1.25 6.8V5.2L1.25 5.16957C1.24999 4.63541 1.24998 4.18957 1.27974 3.82533C1.31078 3.44545 1.37789 3.08879 1.54973 2.75153C1.81339 2.23408 2.23408 1.81339 2.75153 1.54973C3.08879 1.37789 3.44545 1.31078 3.82533 1.27974C4.18957 1.24998 4.63541 1.24999 5.16957 1.25ZM3.94748 2.77476C3.66036 2.79822 3.52308 2.8401 3.43251 2.88624C3.19731 3.00609 3.00609 3.19731 2.88624 3.43251C2.8401 3.52308 2.79822 3.66036 2.77476 3.94748C2.75059 4.24336 2.75 4.62757 2.75 5.2V6.8C2.75 7.37243 2.75059 7.75665 2.77476 8.05252C2.79822 8.33965 2.8401 8.47693 2.88624 8.56749C3.00609 8.80269 3.19731 8.99392 3.43251 9.11376C3.52308 9.1599 3.66036 9.20179 3.94748 9.22524C4.24336 9.24942 4.62757 9.25 5.2 9.25H6.8C7.37243 9.25 7.75665 9.24942 8.05252 9.22524C8.33965 9.20179 8.47693 9.1599 8.56749 9.11376C8.80269 8.99392 8.99392 8.80269 9.11376 8.56749C9.1599 8.47693 9.20179 8.33965 9.22524 8.05252C9.24942 7.75665 9.25 7.37243 9.25 6.8V5.2C9.25 4.62757 9.24942 4.24336 9.22524 3.94748C9.20179 3.66036 9.1599 3.52308 9.11376 3.43251C8.99392 3.19731 8.80269 3.00609 8.56749 2.88624C8.47693 2.8401 8.33965 2.79822 8.05252 2.77476C7.75665 2.75059 7.37243 2.75 6.8 2.75H5.2C4.62757 2.75 4.24336 2.75059 3.94748 2.77476ZM5.16957 13.25H5.2H6.8H6.83044C7.36459 13.25 7.81044 13.25 8.17467 13.2797C8.55456 13.3108 8.91121 13.3779 9.24848 13.5497C9.76592 13.8134 10.1866 14.2341 10.4503 14.7515C10.6221 15.0888 10.6892 15.4454 10.7203 15.8253C10.75 16.1896 10.75 16.6354 10.75 17.1695V17.1695V17.2V18.8V18.8305V18.8305C10.75 19.3646 10.75 19.8105 10.7203 20.1747C10.6892 20.5546 10.6221 20.9112 10.4503 21.2485C10.1866 21.7659 9.76592 22.1866 9.24848 22.4503C8.91121 22.6221 8.55456 22.6892 8.17467 22.7203C7.81049 22.75 7.3647 22.75 6.83064 22.75H6.83045H6.8H5.2H5.16955H5.16936C4.6353 22.75 4.18952 22.75 3.82533 22.7203C3.44545 22.6892 3.08879 22.6221 2.75153 22.4503C2.23408 22.1866 1.81339 21.7659 1.54973 21.2485C1.37789 20.9112 1.31078 20.5546 1.27974 20.1747C1.24998 19.8104 1.24999 19.3646 1.25 18.8304L1.25 18.8V17.2L1.25 17.1696C1.24999 16.6354 1.24998 16.1896 1.27974 15.8253C1.31078 15.4454 1.37789 15.0888 1.54973 14.7515C1.81339 14.2341 2.23408 13.8134 2.75153 13.5497C3.08879 13.3779 3.44545 13.3108 3.82533 13.2797C4.18957 13.25 4.63541 13.25 5.16957 13.25ZM3.94748 14.7748C3.66036 14.7982 3.52308 14.8401 3.43251 14.8862C3.19731 15.0061 3.00609 15.1973 2.88624 15.4325C2.8401 15.5231 2.79822 15.6604 2.77476 15.9475C2.75059 16.2434 2.75 16.6276 2.75 17.2V18.8C2.75 19.3724 2.75059 19.7566 2.77476 20.0525C2.79822 20.3396 2.8401 20.4769 2.88624 20.5675C3.00609 20.8027 3.19731 20.9939 3.43251 21.1138C3.52308 21.1599 3.66036 21.2018 3.94748 21.2252C4.24336 21.2494 4.62757 21.25 5.2 21.25H6.8C7.37243 21.25 7.75665 21.2494 8.05252 21.2252C8.33965 21.2018 8.47693 21.1599 8.56749 21.1138C8.80269 20.9939 8.99392 20.8027 9.11376 20.5675C9.1599 20.4769 9.20179 20.3396 9.22524 20.0525C9.24942 19.7566 9.25 19.3724 9.25 18.8V17.2C9.25 16.6276 9.24942 16.2434 9.22524 15.9475C9.20179 15.6604 9.1599 15.5231 9.11376 15.4325C8.99392 15.1973 8.80269 15.0061 8.56749 14.8862C8.47693 14.8401 8.33965 14.7982 8.05252 14.7748C7.75665 14.7506 7.37243 14.75 6.8 14.75H5.2C4.62757 14.75 4.24336 14.7506 3.94748 14.7748ZM17.2 13.25H17.1696C16.6354 13.25 16.1896 13.25 15.8253 13.2797C15.4454 13.3108 15.0888 13.3779 14.7515 13.5497C14.2341 13.8134 13.8134 14.2341 13.5497 14.7515C13.3779 15.0888 13.3108 15.4454 13.2797 15.8253C13.25 16.1896 13.25 16.6354 13.25 17.1696V17.2V18.8V18.8304C13.25 19.3646 13.25 19.8104 13.2797 20.1747C13.3108 20.5546 13.3779 20.9112 13.5497 21.2485C13.8134 21.7659 14.2341 22.1866 14.7515 22.4503C15.0888 22.6221 15.4454 22.6892 15.8253 22.7203C16.1895 22.75 16.6353 22.75 17.1694 22.75H17.1695H17.2H18.8H18.8305H18.8306C19.3647 22.75 19.8105 22.75 20.1747 22.7203C20.5546 22.6892 20.9112 22.6221 21.2485 22.4503C21.7659 22.1866 22.1866 21.7659 22.4503 21.2485C22.6221 20.9112 22.6892 20.5546 22.7203 20.1747C22.75 19.8105 22.75 19.3647 22.75 18.8306V18.8305V18.8V17.2V17.1695V17.1694C22.75 16.6353 22.75 16.1895 22.7203 15.8253C22.6892 15.4454 22.6221 15.0888 22.4503 14.7515C22.1866 14.2341 21.7659 13.8134 21.2485 13.5497C20.9112 13.3779 20.5546 13.3108 20.1747 13.2797C19.8104 13.25 19.3646 13.25 18.8304 13.25H18.8H17.2ZM15.4325 14.8862C15.5231 14.8401 15.6604 14.7982 15.9475 14.7748C16.2434 14.7506 16.6276 14.75 17.2 14.75H18.8C19.3724 14.75 19.7566 14.7506 20.0525 14.7748C20.3396 14.7982 20.4769 14.8401 20.5675 14.8862C20.8027 15.0061 20.9939 15.1973 21.1138 15.4325C21.1599 15.5231 21.2018 15.6604 21.2252 15.9475C21.2494 16.2434 21.25 16.6276 21.25 17.2V18.8C21.25 19.3724 21.2494 19.7566 21.2252 20.0525C21.2018 20.3396 21.1599 20.4769 21.1138 20.5675C20.9939 20.8027 20.8027 20.9939 20.5675 21.1138C20.4769 21.1599 20.3396 21.2018 20.0525 21.2252C19.7566 21.2494 19.3724 21.25 18.8 21.25H17.2C16.6276 21.25 16.2434 21.2494 15.9475 21.2252C15.6604 21.2018 15.5231 21.1599 15.4325 21.1138C15.1973 20.9939 15.0061 20.8027 14.8862 20.5675C14.8401 20.4769 14.7982 20.3396 14.7748 20.0525C14.7506 19.7566 14.75 19.3724 14.75 18.8V17.2C14.75 16.6276 14.7506 16.2434 14.7748 15.9475C14.7982 15.6604 14.8401 15.5231 14.8862 15.4325C15.0061 15.1973 15.1973 15.0061 15.4325 14.8862Z" fill="#707480"/>
</g>
</svg>
