<svg width="16" height="16" viewBox="0 0 16 16" fill="none" xmlns="http://www.w3.org/2000/svg">
<path d="M7.99991 5.29179C6.50414 5.29179 5.29157 6.50435 5.29157 8.00012C5.29157 9.49589 6.50414 10.7085 7.99991 10.7085C9.49568 10.7085 10.7082 9.49589 10.7082 8.00012C10.7082 6.50435 9.49568 5.29179 7.99991 5.29179Z" fill="white"/>
<path fill-rule="evenodd" clip-rule="evenodd" d="M3.64119 0.56801C6.51462 0.246861 9.48521 0.246861 12.3586 0.56801C13.9406 0.744821 15.2166 1.9913 15.4023 3.57885C15.7459 6.51635 15.7459 9.48389 15.4023 12.4214C15.2166 14.0089 13.9406 15.2554 12.3586 15.4322C9.48521 15.7534 6.51462 15.7534 3.64119 15.4322C2.05919 15.2554 0.783197 14.0089 0.597519 12.4214C0.253952 9.48389 0.253952 6.51635 0.597519 3.57885C0.783197 1.9913 2.05919 0.744821 3.64119 0.56801ZM12.1666 3.00012C11.7063 3.00012 11.3332 3.37322 11.3332 3.83345C11.3332 4.29369 11.7063 4.66679 12.1666 4.66679C12.6268 4.66679 12.9999 4.29369 12.9999 3.83345C12.9999 3.37322 12.6268 3.00012 12.1666 3.00012ZM4.04158 8.00012C4.04158 5.81399 5.81378 4.04179 7.99991 4.04179C10.186 4.04179 11.9582 5.81399 11.9582 8.00012C11.9582 10.1862 10.186 11.9585 7.99991 11.9585C5.81378 11.9585 4.04158 10.1862 4.04158 8.00012Z" fill="white"/>
</svg>
