<svg width="24" height="24" viewBox="0 0 24 24" fill="none" xmlns="http://www.w3.org/2000/svg">
<path fill-rule="evenodd" clip-rule="evenodd" d="M2 2.25C1.58579 2.25 1.25 2.58579 1.25 3C1.25 3.41421 1.58579 3.75 2 3.75H22C22.4142 3.75 22.75 3.41421 22.75 3C22.75 2.58579 22.4142 2.25 22 2.25H2ZM1.25 15C1.25 14.5858 1.58579 14.25 2 14.25H22C22.4142 14.25 22.75 14.5858 22.75 15C22.75 15.4142 22.4142 15.75 22 15.75H2C1.58579 15.75 1.25 15.4142 1.25 15ZM1.25 21C1.25 20.5858 1.58579 20.25 2 20.25H22C22.4142 20.25 22.75 20.5858 22.75 21C22.75 21.4142 22.4142 21.75 22 21.75H2C1.58579 21.75 1.25 21.4142 1.25 21Z" fill="#22272F"/>
<path d="M2 9H22" stroke="#C03221" stroke-width="1.5" stroke-linecap="round" stroke-linejoin="round"/>
</svg>
