<svg width="24" height="24" viewBox="0 0 24 24" fill="none" xmlns="http://www.w3.org/2000/svg">
<path fill-rule="evenodd" clip-rule="evenodd" d="M6.76948 3.08151C10.2176 2.69614 13.7823 2.69614 17.2304 3.08151C19.1288 3.29369 20.66 4.78947 20.8828 6.69452C21.2951 10.2195 21.2951 13.7806 20.8828 17.3056C20.66 19.2106 19.1288 20.7064 17.2304 20.9186C13.7823 21.304 10.2176 21.304 6.76948 20.9186C4.87108 20.7064 3.33989 19.2106 3.11707 17.3056C2.70479 13.7806 2.70479 10.2195 3.11707 6.69452C3.33989 4.78947 4.87108 3.29369 6.76948 3.08151ZM16.4105 8.98009L17.2499 8.17716L17.2493 8.00003H14.3475L12.2793 13.1602L9.92651 8.00068H6.88278V8.17716L7.8635 9.35779C7.91091 9.40047 7.94759 9.45373 7.97056 9.51325C7.99353 9.57276 8.00214 9.63685 7.99569 9.70032V14.3414C8.00976 14.4239 8.00424 14.5086 7.97958 14.5886C7.95493 14.6685 7.91181 14.7416 7.85373 14.8018L6.74994 16.1401V16.3159H9.87702V16.1401L8.77388 14.8018C8.71532 14.7416 8.67122 14.6689 8.64493 14.5891C8.61865 14.5094 8.61085 14.4247 8.62215 14.3414V10.3281L11.367 16.3165H11.6861L14.0434 10.3281V15.1014C14.0434 15.2277 14.0434 15.2525 13.9601 15.3358L13.1115 16.159V16.3348H17.2291V16.159L16.4105 15.3554C16.3751 15.3283 16.3478 15.2922 16.3314 15.2507C16.315 15.2093 16.3102 15.1642 16.3174 15.1203V9.21518C16.3102 9.17123 16.315 9.12614 16.3314 9.08472C16.3478 9.04331 16.3751 9.00714 16.4105 8.98009Z" fill="white"/>
</svg>
