<svg width="20" height="20" viewBox="0 0 20 20" fill="none" xmlns="http://www.w3.org/2000/svg">
<path opacity="0.4" fill-rule="evenodd" clip-rule="evenodd" d="M14.1413 14.1414C14.3854 13.8973 14.7811 13.8973 15.0252 14.1414L17.9419 17.0581C18.1859 17.3021 18.1859 17.6979 17.9419 17.9419C17.6978 18.186 17.3021 18.186 17.058 17.9419L14.1413 15.0253C13.8972 14.7812 13.8972 14.3855 14.1413 14.1414Z" fill="#22272F"/>
<path fill-rule="evenodd" clip-rule="evenodd" d="M9.16675 2.29167C5.36979 2.29167 2.29175 5.36971 2.29175 9.16667C2.29175 12.9636 5.36979 16.0417 9.16675 16.0417C12.9637 16.0417 16.0417 12.9636 16.0417 9.16667C16.0417 5.36971 12.9637 2.29167 9.16675 2.29167ZM1.04175 9.16667C1.04175 4.67935 4.67943 1.04167 9.16675 1.04167C13.6541 1.04167 17.2917 4.67935 17.2917 9.16667C17.2917 13.654 13.6541 17.2917 9.16675 17.2917C4.67943 17.2917 1.04175 13.654 1.04175 9.16667Z" fill="#22272F"/>
</svg>
