<svg width="20" height="20" viewBox="0 0 20 20" fill="none" xmlns="http://www.w3.org/2000/svg">
<path fill-rule="evenodd" clip-rule="evenodd" d="M9.01794 0.822883C9.63945 0.528114 10.3605 0.528115 10.982 0.822884C11.4123 1.02695 11.7174 1.41321 11.9879 1.84978C12.2598 2.28872 12.5581 2.88535 12.9296 3.62833L12.9441 3.65747L13.2435 4.25627C13.4983 4.76575 13.5724 4.89926 13.6654 4.9966C13.7613 5.097 13.8763 5.17721 14.0037 5.23252C14.1272 5.28613 14.2781 5.30949 14.8442 5.37239L16.3813 5.54319L16.3947 5.54467C16.7642 5.58572 17.0596 5.61855 17.2896 5.65304C17.5154 5.68692 17.7308 5.72925 17.917 5.80711C19.2027 6.34482 19.7148 7.8961 19.0019 9.0936C18.8987 9.267 18.7509 9.42924 18.5896 9.59093C18.4254 9.75552 18.2076 9.95776 17.9352 10.2107L17.9253 10.2199L17.0919 10.9937C16.839 11.2286 16.4435 11.214 16.2086 10.961C15.9738 10.7081 15.9884 10.3126 16.2414 10.0777L17.0747 9.30394C17.3593 9.0397 17.5594 8.85373 17.7046 8.70813C17.8548 8.55762 17.9086 8.48658 17.9279 8.45419C18.2519 7.90987 18.0191 7.20474 17.4347 6.96033C17.3999 6.94578 17.3144 6.92075 17.1041 6.88921C16.9008 6.8587 16.6293 6.82842 16.2433 6.78554L14.7062 6.61475C14.6795 6.61178 14.6532 6.60888 14.6272 6.60601C14.1777 6.55641 13.8244 6.51742 13.5059 6.37911C13.2257 6.25745 12.9726 6.08099 12.7615 5.8601C12.5216 5.609 12.3629 5.29095 12.161 4.88636C12.1493 4.86296 12.1375 4.83927 12.1255 4.81529L11.8261 4.21648C11.4367 3.43766 11.1635 2.89263 10.9252 2.50803C10.682 2.11533 10.5355 1.99458 10.4464 1.9523C10.1639 1.81831 9.8361 1.81831 9.5536 1.9523C9.46444 1.99458 9.31798 2.11533 9.07472 2.50803C8.83648 2.89263 8.56327 3.43766 8.17385 4.21648L8.05899 4.4462L7.85066 4.86287C7.69629 5.17161 7.32087 5.29675 7.01213 5.14238C6.7034 4.98801 6.57826 4.61259 6.73262 4.30385L6.94096 3.88719L7.49997 4.16669L6.94096 3.88719L7.05582 3.65746L7.07037 3.62837C7.44186 2.88536 7.74018 2.28872 8.01208 1.84977C8.28252 1.41321 8.58768 1.02694 9.01794 0.822883Z" fill="#C03221"/>
<path fill-rule="evenodd" clip-rule="evenodd" d="M8.61289 1.941C8.92163 2.09537 9.04677 2.47079 8.8924 2.77952L8.47573 3.61286L7.87452 4.81528C7.86253 4.83926 7.85071 4.86295 7.83903 4.88635C7.63711 5.29094 7.47838 5.60899 7.23847 5.86009C7.02744 6.08098 6.77437 6.25744 6.49414 6.3791C6.17559 6.5174 5.82228 6.5564 5.37283 6.606C5.34684 6.60887 5.32052 6.61177 5.29387 6.61473L5.02207 6.64493C4.0896 6.74854 3.43318 6.82209 2.95544 6.91927C2.46371 7.01928 2.29185 7.12224 2.22331 7.19218C1.99746 7.4226 1.89114 7.74467 1.93541 8.06426C1.94885 8.16126 2.02563 8.3463 2.36116 8.71942C2.68715 9.08192 3.17076 9.53183 3.85828 10.1702L4.14523 10.4367C4.16892 10.4587 4.19233 10.4804 4.21545 10.5018C4.60976 10.8673 4.91924 11.1542 5.10443 11.5148C5.26707 11.8315 5.3537 12.1817 5.35744 12.5377C5.3617 12.9431 5.22026 13.3451 5.03969 13.8582C5.02903 13.8886 5.01823 13.9193 5.00731 13.9504C4.65727 14.948 4.40915 15.6568 4.27282 16.1892C4.13055 16.7448 4.15316 16.9619 4.18767 17.0498C4.31037 17.3623 4.57619 17.5965 4.90168 17.6789C4.99464 17.7025 5.21064 17.6979 5.73487 17.4911C6.23844 17.2925 6.8996 16.9626 7.83136 16.4967L8.52797 16.1484C8.55 16.1374 8.57175 16.1265 8.59323 16.1157C8.96656 15.9287 9.26019 15.7817 9.57747 15.7221C9.85676 15.6698 10.1433 15.6698 10.4226 15.7221C10.7399 15.7817 11.0335 15.9287 11.4069 16.1157C11.4284 16.1265 11.4501 16.1374 11.4721 16.1484L12.1687 16.4967C13.1005 16.9626 13.7616 17.2925 14.2652 17.4911C14.7894 17.6979 15.0055 17.7025 15.0984 17.6789C15.4239 17.5965 15.6897 17.3623 15.8124 17.0498C15.8469 16.9619 15.8695 16.7448 15.7273 16.1892C15.5909 15.6568 15.3428 14.948 14.9928 13.9504C14.9819 13.9193 14.9711 13.8886 14.9604 13.8582C14.7798 13.3451 14.6384 12.9431 14.6427 12.5377C14.6464 12.1817 14.733 11.8315 14.8957 11.5148C15.0809 11.1542 15.3903 10.8673 15.7846 10.5018C15.8078 10.4804 15.8312 10.4587 15.8549 10.4367L16.2414 10.0777L17.0748 9.30392C17.3277 9.06905 17.7232 9.08369 17.958 9.33664C18.1929 9.58958 18.1783 9.98504 17.9253 10.2199L17.092 10.9937L16.7054 11.3527C16.207 11.8155 16.0792 11.9465 16.0076 12.0859C15.9337 12.2298 15.8943 12.389 15.8926 12.5508C15.8909 12.7073 15.944 12.886 16.1723 13.5365L16.1831 13.5674C16.52 14.5274 16.7867 15.2877 16.9382 15.8792C17.0853 16.4538 17.1678 17.018 16.976 17.5066C16.706 18.1942 16.1212 18.7095 15.4052 18.8907C14.8977 19.0192 14.3532 18.8695 13.8066 18.6539C13.2455 18.4326 12.5349 18.0774 11.6391 17.6294L11.6097 17.6147L10.9131 17.2664C10.4434 17.0316 10.3153 16.9738 10.1921 16.9507C10.0652 16.9269 9.93492 16.9269 9.80797 16.9507C9.68485 16.9738 9.55667 17.0316 9.08699 17.2664L8.39038 17.6147L8.36097 17.6294C7.46515 18.0774 6.75464 18.4326 6.19352 18.6539C5.64692 18.8695 5.10237 19.0192 4.59494 18.8907C3.87887 18.7095 3.29407 18.1942 3.02413 17.5066C2.83231 17.018 2.91475 16.4538 3.0619 15.8792C3.21336 15.2877 3.48014 14.5273 3.81699 13.5673L3.82781 13.5365C4.05607 12.886 4.10915 12.7073 4.10751 12.5508C4.10581 12.389 4.06643 12.2298 3.9925 12.0859C3.92091 11.9465 3.79311 11.8155 3.29467 11.3527L3.00771 11.0862L2.98367 11.0639C2.32565 10.4529 1.80001 9.9648 1.43171 9.55525C1.06848 9.15133 0.765309 8.72719 0.697234 8.23578C0.599835 7.53268 0.833746 6.82413 1.33061 6.3172C1.67787 5.9629 2.17397 5.80262 2.70629 5.69435C3.24604 5.58456 3.95897 5.50535 4.85144 5.4062L4.88403 5.40258L5.15583 5.37238C5.72195 5.30947 5.87285 5.28612 5.99634 5.2325C6.12371 5.1772 6.23874 5.09699 6.33467 4.99659C6.42767 4.89925 6.50175 4.76573 6.75649 4.25626L7.3577 3.05384L7.77437 2.22051C7.92873 1.91177 8.30416 1.78663 8.61289 1.941Z" fill="#22272F"/>
</svg>
