<svg width="20" height="20" viewBox="0 0 20 20" fill="none" xmlns="http://www.w3.org/2000/svg">
<path fill-rule="evenodd" clip-rule="evenodd" d="M15.4026 16.4917L15.4032 16.4903L15.4177 16.454L17.9167 3.85477V3.81385C17.9167 3.49993 17.8007 3.22588 17.5483 3.0615C17.3273 2.91762 17.0734 2.90737 16.8953 2.92089C16.7069 2.93518 16.5293 2.98219 16.4064 3.02133C16.3431 3.04146 16.2902 3.06086 16.2523 3.07553C16.2333 3.0829 16.2179 3.08914 16.2067 3.0938L16.1957 3.09843L2.26256 8.56421L2.25872 8.56559C2.2512 8.56833 2.24124 8.57204 2.22922 8.57672C2.20526 8.58604 2.17265 8.59939 2.13433 8.61676C2.0591 8.65085 1.95515 8.70347 1.84973 8.77566C1.67069 8.89827 1.32976 9.18854 1.38733 9.64873C1.43501 10.0299 1.69776 10.272 1.8749 10.3973C1.96986 10.4645 2.0607 10.513 2.12723 10.5446C2.16093 10.5607 2.18957 10.573 2.21089 10.5817C2.22158 10.586 2.23052 10.5895 2.23743 10.5921L2.24629 10.5954L2.25195 10.5975L4.68965 11.4182C4.68142 11.5711 4.69659 11.7271 4.73715 11.8809L5.95822 16.5129C6.103 17.0622 6.59986 17.4447 7.16783 17.4443C7.67694 17.4439 8.12846 17.136 8.32028 16.6764L10.2267 14.638L13.5008 17.1482L13.5474 17.1685C13.8449 17.2984 14.1228 17.3395 14.3769 17.3048C14.6306 17.2701 14.8323 17.1637 14.9837 17.0425C15.1328 16.9233 15.2349 16.7887 15.2992 16.6874C15.3318 16.6359 15.3562 16.5906 15.373 16.5566C15.3815 16.5395 15.3882 16.525 15.3932 16.5137L15.3995 16.4992L15.4017 16.4939L15.4026 16.4917ZM5.94582 11.5623C5.91807 11.457 5.96163 11.3459 6.05354 11.2875L14.3219 6.03677C14.3219 6.03677 14.8082 5.74152 14.7908 6.03677C14.7908 6.03677 14.8776 6.08891 14.617 6.33201C14.3698 6.56291 8.72395 12.0138 8.15267 12.5654C8.1197 12.5972 8.10001 12.6337 8.08839 12.6781L7.16689 16.1943L5.94582 11.5623Z" fill="white"/>
</svg>
