<svg width="20" height="20" viewBox="0 0 20 20" fill="none" xmlns="http://www.w3.org/2000/svg">
<path d="M18.1748 5.18904C18.2231 5.12173 18.1518 5.03482 18.0745 5.06476C17.5256 5.27754 16.9519 5.4211 16.3667 5.49184C17.0183 5.10257 17.5211 4.51001 17.7999 3.80845C17.8283 3.73699 17.7503 3.67316 17.683 3.71034C17.0774 4.04479 16.4242 4.28562 15.7458 4.42432C15.7174 4.43012 15.6881 4.42046 15.6682 4.39942C15.159 3.86219 14.4888 3.50449 13.7582 3.38088C13.0122 3.25468 12.2455 3.37964 11.5782 3.73617C10.9109 4.09269 10.3808 4.66062 10.0711 5.35087C9.77655 6.00717 9.69708 6.73876 9.84234 7.44137C9.85361 7.49588 9.81094 7.54735 9.75538 7.5439C8.43533 7.46192 7.14558 7.11081 5.96557 6.51173C4.78856 5.91417 3.74628 5.08286 2.90222 4.06909C2.86476 4.0241 2.79377 4.02992 2.76647 4.08171C2.50383 4.5801 2.36632 5.1356 2.36669 5.70017C2.36562 6.26216 2.50354 6.81569 2.76815 7.31148C3.03277 7.80727 3.41587 8.22993 3.88336 8.54184C3.38759 8.52835 2.90148 8.40579 2.4594 8.18357C2.40242 8.15493 2.33408 8.19571 2.33705 8.2594C2.37152 9.00043 2.64357 9.74437 3.11445 10.3151C3.61555 10.9225 4.31107 11.3382 5.08336 11.4918C4.78607 11.5823 4.47742 11.63 4.16669 11.6335C3.99757 11.6315 3.82879 11.6191 3.6613 11.5962C3.5992 11.5877 3.5485 11.6467 3.57024 11.7054C3.80058 12.3283 4.20752 12.8719 4.74259 13.2686C5.31463 13.6928 6.00467 13.9281 6.71669 13.9418C5.51436 14.8879 4.02993 15.4042 2.50002 15.4085C2.34282 15.409 2.18569 15.4039 2.02892 15.3932C1.94058 15.3872 1.89996 15.5049 1.9761 15.5501C3.46674 16.4347 5.17051 16.9023 6.90836 16.9002C8.19143 16.9135 9.4643 16.671 10.6526 16.1869C11.8409 15.7028 12.9209 14.9867 13.8294 14.0806C14.7378 13.1744 15.4567 12.0963 15.9438 10.9093C16.431 9.72219 16.6767 8.44995 16.6667 7.16684V6.76698C16.6667 6.74067 16.6791 6.71593 16.7001 6.70008C17.2654 6.27329 17.7624 5.76376 18.1748 5.18904Z" fill="white"/>
</svg>
