<svg width="24" height="24" viewBox="0 0 24 24" fill="none" xmlns="http://www.w3.org/2000/svg">
<path fill-rule="evenodd" clip-rule="evenodd" d="M12 2.75C10.2051 2.75 8.75 4.20507 8.75 6C8.75 7.79493 10.2051 9.25 12 9.25C13.7949 9.25 15.25 7.79493 15.25 6C15.25 4.20507 13.7949 2.75 12 2.75ZM7.25 6C7.25 3.37665 9.37665 1.25 12 1.25C14.6234 1.25 16.75 3.37665 16.75 6C16.75 8.62335 14.6234 10.75 12 10.75C9.37665 10.75 7.25 8.62335 7.25 6Z" fill="#C03221"/>
<path fill-rule="evenodd" clip-rule="evenodd" d="M3.25 18.8C3.25 15.7348 5.73482 13.25 8.8 13.25H15.2C18.2652 13.25 20.75 15.7348 20.75 18.8C20.75 20.9815 18.9815 22.75 16.8 22.75H7.2C5.01848 22.75 3.25 20.9815 3.25 18.8ZM8.8 14.75C6.56325 14.75 4.75 16.5632 4.75 18.8C4.75 20.1531 5.8469 21.25 7.2 21.25H16.8C18.1531 21.25 19.25 20.1531 19.25 18.8C19.25 16.5632 17.4368 14.75 15.2 14.75H8.8Z" fill="#22272F"/>
</svg>
