<svg width="24" height="24" viewBox="0 0 24 24" fill="none" xmlns="http://www.w3.org/2000/svg">
<path fill-rule="evenodd" clip-rule="evenodd" d="M17.25 14C17.25 11.9289 18.9289 10.25 21 10.25H21.5C21.9142 10.25 22.25 10.5858 22.25 11C22.25 11.4142 21.9142 11.75 21.5 11.75H21C19.7574 11.75 18.75 12.7574 18.75 14C18.75 15.2426 19.7574 16.25 21 16.25H21.5C21.9142 16.25 22.25 16.5858 22.25 17C22.25 17.4142 21.9142 17.75 21.5 17.75H21C18.9289 17.75 17.25 16.0711 17.25 14Z" fill="#C03221"/>
<path fill-rule="evenodd" clip-rule="evenodd" d="M10.8 2.75C12.0168 2.75 12.4787 2.75678 12.8925 2.87495C13.28 2.98561 13.6435 3.16738 13.9645 3.41097C14.3073 3.67109 14.5899 4.03656 15.32 5.01L15.5 5.25L12 5.25L4 5.25C3.30964 5.25 2.75 4.69036 2.75 4C2.75 3.30964 3.30964 2.75 4 2.75H10.8ZM1.25 4C1.25 2.48122 2.48122 1.25 4 1.25H10.8L10.9131 1.24998C11.9779 1.24977 12.6637 1.24962 13.3044 1.43262C13.8708 1.59436 14.4021 1.86001 14.8713 2.21604C15.4021 2.61883 15.8134 3.16754 16.4521 4.01946L16.4521 4.01947L16.52 4.11L17.3846 5.26274C17.7141 5.271 18.0141 5.28459 18.2883 5.30699C19.0017 5.36527 19.6053 5.48688 20.1565 5.76772C21.0502 6.22312 21.7769 6.94977 22.2323 7.84354C22.5131 8.39472 22.6347 8.99834 22.693 9.71173C22.75 10.4094 22.75 11.2748 22.75 12.367V12.4V15.6V15.633C22.75 16.7252 22.75 17.5906 22.693 18.2883C22.6347 19.0017 22.5131 19.6053 22.2323 20.1565C21.7769 21.0502 21.0502 21.7769 20.1565 22.2323C19.6053 22.5131 19.0017 22.6347 18.2883 22.693C17.5906 22.75 16.7252 22.75 15.633 22.75H15.6H8.4H8.36698C7.27485 22.75 6.40935 22.75 5.71173 22.693C4.99834 22.6347 4.39472 22.5131 3.84355 22.2323C2.94978 21.7769 2.22312 21.0502 1.76772 20.1565C1.48688 19.6053 1.36527 19.0017 1.30699 18.2883C1.24999 17.5906 1.24999 16.7251 1.25 15.633V15.6V4ZM15.6 6.75C16.7325 6.75 17.5367 6.75058 18.1661 6.80201C18.7867 6.85271 19.171 6.94909 19.4755 7.10423C20.087 7.41582 20.5842 7.913 20.8958 8.52453C21.0509 8.829 21.1473 9.21325 21.198 9.83388C21.2494 10.4633 21.25 11.2675 21.25 12.4V15.6C21.25 16.7325 21.2494 17.5367 21.198 18.1661C21.1473 18.7867 21.0509 19.171 20.8958 19.4755C20.5842 20.087 20.087 20.5842 19.4755 20.8958C19.171 21.0509 18.7867 21.1473 18.1661 21.198C17.5367 21.2494 16.7325 21.25 15.6 21.25H8.4C7.26752 21.25 6.46327 21.2494 5.83388 21.198C5.21325 21.1473 4.829 21.0509 4.52453 20.8958C3.913 20.5842 3.41582 20.087 3.10423 19.4755C2.94909 19.171 2.85271 18.7867 2.80201 18.1661C2.75058 17.5367 2.75 16.7325 2.75 15.6V6.45014C3.12503 6.64186 3.54989 6.75 4 6.75H11.9991C11.9994 6.75 11.9997 6.75 12 6.75H15.6Z" fill="#22272F"/>
</svg>
