<svg width="64" height="64" viewBox="0 0 64 64" fill="none" xmlns="http://www.w3.org/2000/svg">
<rect opacity="0.15" y="16" width="48" height="48" rx="10" fill="#C03221"/>
<g filter="url(#filter0_b_40_248)">
<rect x="12" y="4" width="48" height="48" rx="10" fill="#C03221"/>
<rect x="10" y="2" width="52" height="52" rx="12" stroke="white" stroke-opacity="0.3" stroke-width="4"/>
</g>
<path opacity="0.4" fill-rule="evenodd" clip-rule="evenodd" d="M41.25 30C41.25 27.9289 42.9289 26.25 45 26.25H45.5C45.9142 26.25 46.25 26.5858 46.25 27C46.25 27.4142 45.9142 27.75 45.5 27.75H45C43.7574 27.75 42.75 28.7574 42.75 30C42.75 31.2426 43.7574 32.25 45 32.25H45.5C45.9142 32.25 46.25 32.5858 46.25 33C46.25 33.4142 45.9142 33.75 45.5 33.75H45C42.9289 33.75 41.25 32.0711 41.25 30Z" fill="white"/>
<path fill-rule="evenodd" clip-rule="evenodd" d="M34.8 18.75C36.0168 18.75 36.4787 18.7568 36.8925 18.875C37.28 18.9856 37.6435 19.1674 37.9645 19.411C38.3073 19.6711 38.5899 20.0366 39.32 21.01L39.5 21.25L36 21.25L28 21.25C27.3096 21.25 26.75 20.6904 26.75 20C26.75 19.3097 27.3096 18.75 28 18.75H34.8ZM25.25 20C25.25 18.4812 26.4812 17.25 28 17.25H34.8L34.9131 17.25C35.9779 17.2498 36.6637 17.2497 37.3044 17.4326C37.8708 17.5944 38.4021 17.86 38.8713 18.2161C39.4021 18.6189 39.8134 19.1676 40.4521 20.0195L40.4521 20.0195L40.52 20.11L41.3846 21.2628C41.7141 21.271 42.0141 21.2846 42.2883 21.307C43.0017 21.3653 43.6053 21.4869 44.1565 21.7677C45.0502 22.2231 45.7769 22.9498 46.2323 23.8436C46.5131 24.3947 46.6347 24.9984 46.693 25.7118C46.75 26.4094 46.75 27.2749 46.75 28.367V28.4V31.6V31.6331C46.75 32.7252 46.75 33.5907 46.693 34.2883C46.6347 35.0017 46.5131 35.6053 46.2323 36.1565C45.7769 37.0503 45.0502 37.7769 44.1565 38.2323C43.6053 38.5131 43.0017 38.6348 42.2883 38.693C41.5906 38.75 40.7252 38.75 39.633 38.75H39.6H32.4H32.367C31.2748 38.75 30.4094 38.75 29.7117 38.693C28.9983 38.6348 28.3947 38.5131 27.8435 38.2323C26.9498 37.7769 26.2231 37.0503 25.7677 36.1565C25.4869 35.6053 25.3653 35.0017 25.307 34.2883C25.25 33.5907 25.25 32.7252 25.25 31.633V31.6V20ZM39.6 22.75C40.7325 22.75 41.5367 22.7506 42.1661 22.802C42.7867 22.8527 43.171 22.9491 43.4755 23.1043C44.087 23.4158 44.5842 23.913 44.8958 24.5246C45.0509 24.829 45.1473 25.2133 45.198 25.8339C45.2494 26.4633 45.25 27.2675 45.25 28.4V31.6C45.25 32.7325 45.2494 33.5368 45.198 34.1661C45.1473 34.7868 45.0509 35.171 44.8958 35.4755C44.5842 36.087 44.087 36.5842 43.4755 36.8958C43.171 37.0509 42.7867 37.1473 42.1661 37.198C41.5367 37.2494 40.7325 37.25 39.6 37.25H32.4C31.2675 37.25 30.4633 37.2494 29.8339 37.198C29.2133 37.1473 28.829 37.0509 28.5245 36.8958C27.913 36.5842 27.4158 36.087 27.1042 35.4755C26.9491 35.171 26.8527 34.7868 26.802 34.1661C26.7506 33.5368 26.75 32.7325 26.75 31.6V22.4502C27.125 22.6419 27.5499 22.75 28 22.75H35.9991C35.9994 22.75 35.9997 22.75 36 22.75H39.6Z" fill="white"/>
<defs>
<filter id="filter0_b_40_248" x="-12" y="-20" width="96" height="96" filterUnits="userSpaceOnUse" color-interpolation-filters="sRGB">
<feFlood flood-opacity="0" result="BackgroundImageFix"/>
<feGaussianBlur in="BackgroundImage" stdDeviation="10"/>
<feComposite in2="SourceAlpha" operator="in" result="effect1_backgroundBlur_40_248"/>
<feBlend mode="normal" in="SourceGraphic" in2="effect1_backgroundBlur_40_248" result="shape"/>
</filter>
</defs>
</svg>
