<svg width="40" height="40" viewBox="0 0 40 40" fill="none" xmlns="http://www.w3.org/2000/svg">
<rect x="0.5" y="0.5" width="39" height="39" rx="3.5" fill="#FAFAFA" stroke="#E2E5EB"/>
<g opacity="0.7" clip-path="url(#clip0_54_169)">
<path d="M28.9308 18.7912C28.1348 16.0561 27.237 14.6429 27.2225 14.6175C27.1714 14.5551 25.9028 13.037 22.8452 11.9141L22.4412 13.0141C23.8958 13.5483 24.9277 14.2 25.4953 14.6211C23.8009 14.1151 21.7852 13.8052 20 13.8052C18.2148 13.8052 16.1991 14.1151 14.5047 14.6211C15.0722 14.2 16.1042 13.5483 17.5587 13.0141L17.1547 11.9141C14.0973 13.037 12.8287 14.5551 12.7775 14.6175C12.763 14.6429 11.8652 16.0561 11.0692 18.7912C10.302 21.427 10.0106 25.1453 10 25.2944C10.0684 25.4013 11.6406 28.0856 15.9255 28.0856L17.0116 26.5129C15.7948 26.1898 14.6345 25.6688 13.5724 24.9618L14.2218 23.9863C15.9352 25.1268 17.9333 25.7297 20 25.7297C22.0667 25.7297 24.0648 25.1268 25.7782 23.9863L26.4276 24.9618C25.3655 25.6688 24.2052 26.1898 22.9884 26.5129L24.0745 28.0856C28.3594 28.0856 29.9316 25.4013 30 25.2944C29.9894 25.1453 29.698 21.427 28.9308 18.7912V18.7912ZM17.2907 21.8569H16.1188V19.9038H17.2907V21.8569ZM23.8812 21.8569H22.7093V19.9038H23.8812V21.8569Z" fill="#707480"/>
</g>
<defs>
<clipPath id="clip0_54_169">
<rect width="20" height="20" fill="white" transform="translate(10 10)"/>
</clipPath>
</defs>
</svg>
