<svg width="40" height="40" viewBox="0 0 40 40" fill="none" xmlns="http://www.w3.org/2000/svg">
<rect x="0.5" y="0.5" width="39" height="39" rx="3.5" fill="#FAFAFA" stroke="#E2E5EB"/>
<g opacity="0.7">
<path d="M19.9999 17.2918C18.5041 17.2918 17.2916 18.5043 17.2916 20.0001C17.2916 21.4959 18.5041 22.7085 19.9999 22.7085C21.4957 22.7085 22.7082 21.4959 22.7082 20.0001C22.7082 18.5043 21.4957 17.2918 19.9999 17.2918Z" fill="#707480"/>
<path fill-rule="evenodd" clip-rule="evenodd" d="M15.6412 12.568C18.5146 12.2469 21.4852 12.2469 24.3586 12.568C25.9406 12.7448 27.2166 13.9913 27.4023 15.5788C27.7459 18.5163 27.7459 21.4839 27.4023 24.4214C27.2166 26.0089 25.9406 27.2554 24.3586 27.4322C21.4852 27.7534 18.5146 27.7534 15.6412 27.4322C14.0592 27.2554 12.7832 26.0089 12.5975 24.4214C12.254 21.4839 12.254 18.5164 12.5975 15.5788C12.7832 13.9913 14.0592 12.7448 15.6412 12.568ZM24.1666 15.0001C23.7063 15.0001 23.3332 15.3732 23.3332 15.8335C23.3332 16.2937 23.7063 16.6668 24.1666 16.6668C24.6268 16.6668 24.9999 16.2937 24.9999 15.8335C24.9999 15.3732 24.6268 15.0001 24.1666 15.0001ZM16.0416 20.0001C16.0416 17.814 17.8138 16.0418 19.9999 16.0418C22.186 16.0418 23.9582 17.814 23.9582 20.0001C23.9582 22.1862 22.186 23.9585 19.9999 23.9585C17.8138 23.9585 16.0416 22.1862 16.0416 20.0001Z" fill="#707480"/>
</g>
</svg>
