<svg width="28" height="28" viewBox="0 0 28 28" fill="none" xmlns="http://www.w3.org/2000/svg">
<g opacity="0.2">
<path opacity="0.4" fill-rule="evenodd" clip-rule="evenodd" d="M16.1268 10.1625C15.4816 10.1625 14.9585 10.6856 14.9585 11.3309C14.9585 11.9761 15.4816 12.4992 16.1268 12.4992C16.7721 12.4992 17.2952 11.9761 17.2952 11.3309C17.2952 10.6856 16.7721 10.1625 16.1268 10.1625ZM13.4585 11.3309C13.4585 9.85717 14.6531 8.6625 16.1268 8.6625C17.6005 8.6625 18.7952 9.85717 18.7952 11.3309C18.7952 12.8046 17.6005 13.9992 16.1268 13.9992C14.6531 13.9992 13.4585 12.8046 13.4585 11.3309Z" fill="#22272F"/>
<path fill-rule="evenodd" clip-rule="evenodd" d="M5.36662 14.2084C5.36662 9.32523 9.32522 5.36662 14.2084 5.36662C19.0916 5.36662 23.0502 9.32523 23.0502 14.2084C23.0502 15.6345 22.7126 16.9818 22.1129 18.1746L21.395 17.4568L21.3742 17.4359L21.3742 17.4359C21.0664 17.1281 20.8038 16.8655 20.5706 16.6675C20.3254 16.4594 20.0636 16.2788 19.7443 16.1751C19.2634 16.0188 18.7454 16.0188 18.2645 16.1751C17.9451 16.2788 17.6834 16.4594 17.4382 16.6675C17.2049 16.8655 16.9424 17.1281 16.6346 17.4359L16.6345 17.436L16.6137 17.4568L16.1268 17.9437L14.2012 16.018L14.1804 15.9972L14.1804 15.9972C13.8725 15.6893 13.61 15.4268 13.3767 15.2288C13.1315 15.0206 12.8698 14.8401 12.5504 14.7363C12.0695 14.58 11.5515 14.58 11.0706 14.7363C10.7513 14.8401 10.4895 15.0206 10.2443 15.2288C10.0111 15.4268 9.74852 15.6893 9.44068 15.9972L9.41987 16.018L6.96389 18.474L6.64591 18.792C5.83409 17.4554 5.36662 15.8865 5.36662 14.2084ZM7.54213 20.017C9.16302 21.8757 11.5486 23.0502 14.2084 23.0502C15.6346 23.0502 16.9818 22.7126 18.1747 22.1128L15.5965 19.5346L13.1405 17.0787C12.8062 16.7443 12.5869 16.5259 12.406 16.3723C12.2317 16.2243 12.1429 16.1811 12.0869 16.1629C11.9073 16.1045 11.7138 16.1045 11.5342 16.1629C11.4781 16.1811 11.3893 16.2243 11.2151 16.3723C11.0341 16.5259 10.8149 16.7443 10.4805 17.0787L8.02455 19.5346L7.54496 20.0142C7.54402 20.0152 7.54307 20.0161 7.54213 20.017ZM19.4861 21.303C20.1763 20.7887 20.7888 20.1762 21.303 19.4861L20.3344 18.5174C20 18.1831 19.7808 17.9646 19.5998 17.811C19.4256 17.6631 19.3368 17.6199 19.2807 17.6016C19.1011 17.5433 18.9076 17.5433 18.728 17.6016C18.672 17.6199 18.5832 17.6631 18.4089 17.811C18.228 17.9646 18.0087 18.1831 17.6744 18.5174L17.1875 19.0043L19.4861 21.303ZM14.2084 3.86662C8.49679 3.86662 3.86662 8.4968 3.86662 14.2084C3.86662 19.92 8.49679 24.5502 14.2084 24.5502C19.92 24.5502 24.5502 19.92 24.5502 14.2084C24.5502 8.4968 19.92 3.86662 14.2084 3.86662Z" fill="#22272F"/>
</g>
</svg>
