<svg width="40" height="40" viewBox="0 0 40 40" fill="none" xmlns="http://www.w3.org/2000/svg">
<rect x="0.5" y="0.5" width="39" height="39" rx="3.5" fill="#FAFAFA" stroke="#E2E5EB"/>
<g opacity="0.7">
<path fill-rule="evenodd" clip-rule="evenodd" d="M14.7697 11.0815C18.2178 10.6961 21.7825 10.6961 25.2307 11.0815C27.1291 11.2937 28.6603 12.7895 28.8831 14.6945C29.2954 18.2195 29.2954 21.7806 28.8831 25.3056C28.6603 27.2106 27.1291 28.7064 25.2307 28.9186C21.7825 29.304 18.2178 29.304 14.7697 28.9186C12.8713 28.7064 11.3401 27.2106 11.1173 25.3056C10.705 21.7806 10.705 18.2195 11.1173 14.6945C11.3401 12.7895 12.8713 11.2937 14.7697 11.0815ZM24.4108 16.9801L25.2502 16.1772L25.2495 16H22.3478L20.2795 21.1602L17.9268 16.0007H14.883V16.1772L15.8637 17.3578C15.9112 17.4005 15.9478 17.4537 15.9708 17.5132C15.9938 17.5728 16.0024 17.6369 15.9959 17.7003V22.3414C16.01 22.4239 16.0045 22.5086 15.9798 22.5886C15.9552 22.6685 15.9121 22.7416 15.854 22.8018L14.7502 24.1401V24.3159H17.8773V24.1401L16.7741 22.8018C16.7156 22.7416 16.6715 22.6689 16.6452 22.5891C16.6189 22.5094 16.6111 22.4247 16.6224 22.3414V18.3281L19.3672 24.3165H19.6863L22.0437 18.3281V23.1014C22.0437 23.2277 22.0437 23.2525 21.9603 23.3358L21.1118 24.159V24.3348H25.2293V24.159L24.4108 23.3554C24.3754 23.3283 24.348 23.2922 24.3316 23.2507C24.3152 23.2093 24.3104 23.1642 24.3177 23.1203V17.2152C24.3104 17.1712 24.3152 17.1261 24.3316 17.0847C24.348 17.0433 24.3754 17.0071 24.4108 16.9801Z" fill="#707480"/>
</g>
</svg>
