<svg width="40" height="40" viewBox="0 0 40 40" fill="none" xmlns="http://www.w3.org/2000/svg">
<rect x="0.5" y="0.5" width="39" height="39" rx="3.5" fill="#FAFAFA" stroke="#E2E5EB"/>
<g opacity="0.7">
<path fill-rule="evenodd" clip-rule="evenodd" d="M25.4026 26.4917L25.4032 26.4903L25.4177 26.454L27.9167 13.8548V13.8139C27.9167 13.4999 27.8007 13.2259 27.5483 13.0615C27.3273 12.9176 27.0734 12.9074 26.8953 12.9209C26.7069 12.9352 26.5293 12.9822 26.4064 13.0213C26.3431 13.0415 26.2902 13.0609 26.2523 13.0755C26.2333 13.0829 26.2179 13.0891 26.2067 13.0938L26.1957 13.0984L12.2626 18.5642L12.2587 18.5656C12.2512 18.5683 12.2412 18.572 12.2292 18.5767C12.2053 18.586 12.1726 18.5994 12.1343 18.6168C12.0591 18.6509 11.9551 18.7035 11.8497 18.7757C11.6707 18.8983 11.3298 19.1885 11.3873 19.6487C11.435 20.0299 11.6978 20.272 11.8749 20.3973C11.9699 20.4645 12.0607 20.513 12.1272 20.5446C12.1609 20.5607 12.1896 20.573 12.2109 20.5817C12.2216 20.586 12.2305 20.5895 12.2374 20.5921L12.2463 20.5954L12.2519 20.5975L14.6896 21.4182C14.6814 21.5711 14.6966 21.7271 14.7372 21.8809L15.9582 26.5129C16.103 27.0622 16.5999 27.4447 17.1678 27.4443C17.6769 27.4439 18.1285 27.136 18.3203 26.6764L20.2267 24.638L23.5008 27.1482L23.5474 27.1685C23.8449 27.2984 24.1228 27.3395 24.3769 27.3048C24.6306 27.2701 24.8323 27.1637 24.9837 27.0425C25.1328 26.9233 25.2349 26.7887 25.2992 26.6874C25.3318 26.6359 25.3562 26.5906 25.373 26.5566C25.3815 26.5395 25.3882 26.525 25.3932 26.5137L25.3995 26.4992L25.4017 26.4939L25.4026 26.4917ZM15.9458 21.5623C15.9181 21.457 15.9616 21.3459 16.0535 21.2875L24.3219 16.0368C24.3219 16.0368 24.8082 15.7415 24.7908 16.0368C24.7908 16.0368 24.8776 16.0889 24.617 16.332C24.3698 16.5629 18.724 22.0138 18.1527 22.5654C18.1197 22.5972 18.1 22.6337 18.0884 22.6781L17.1669 26.1943L15.9458 21.5623Z" fill="#707480"/>
</g>
</svg>
