<svg width="40" height="40" viewBox="0 0 40 40" fill="none" xmlns="http://www.w3.org/2000/svg">
<rect x="0.5" y="0.5" width="39" height="39" rx="3.5" fill="#FAFAFA" stroke="#E2E5EB"/>
<g opacity="0.7">
<path d="M28.1748 15.189C28.2231 15.1217 28.1518 15.0348 28.0745 15.0648C27.5256 15.2775 26.9519 15.4211 26.3667 15.4918C27.0183 15.1026 27.5211 14.51 27.7999 13.8085C27.8283 13.737 27.7503 13.6732 27.683 13.7103C27.0774 14.0448 26.4242 14.2856 25.7458 14.4243C25.7174 14.4301 25.6881 14.4205 25.6682 14.3994C25.159 13.8622 24.4888 13.5045 23.7582 13.3809C23.0122 13.2547 22.2455 13.3796 21.5782 13.7362C20.9109 14.0927 20.3808 14.6606 20.0711 15.3509C19.7765 16.0072 19.6971 16.7388 19.8423 17.4414C19.8536 17.4959 19.8109 17.5474 19.7554 17.5439C18.4353 17.4619 17.1456 17.1108 15.9656 16.5117C14.7886 15.9142 13.7463 15.0829 12.9022 14.0691C12.8648 14.0241 12.7938 14.0299 12.7665 14.0817C12.5038 14.5801 12.3663 15.1356 12.3667 15.7002C12.3656 16.2622 12.5035 16.8157 12.7682 17.3115C13.0328 17.8073 13.4159 18.2299 13.8834 18.5418C13.3876 18.5284 12.9015 18.4058 12.4594 18.1836C12.4024 18.1549 12.3341 18.1957 12.337 18.2594C12.3715 19.0004 12.6436 19.7444 13.1145 20.3151C13.6156 20.9225 14.3111 21.3382 15.0834 21.4918C14.7861 21.5823 14.4774 21.63 14.1667 21.6335C13.9976 21.6315 13.8288 21.6191 13.6613 21.5962C13.5992 21.5877 13.5485 21.6467 13.5702 21.7054C13.8006 22.3283 14.2075 22.8719 14.7426 23.2686C15.3146 23.6928 16.0047 23.9281 16.7167 23.9418C15.5144 24.8879 14.0299 25.4042 12.5 25.4085C12.3428 25.409 12.1857 25.4039 12.0289 25.3932C11.9406 25.3872 11.9 25.5049 11.9761 25.5501C13.4667 26.4347 15.1705 26.9023 16.9084 26.9002C18.1914 26.9135 19.4643 26.671 20.6526 26.1869C21.8409 25.7028 22.9209 24.9867 23.8294 24.0806C24.7378 23.1744 25.4567 22.0963 25.9438 20.9093C26.431 19.7222 26.6767 18.4499 26.6667 17.1668V16.767C26.6667 16.7407 26.6791 16.7159 26.7001 16.7001C27.2654 16.2733 27.7624 15.7638 28.1748 15.189Z" fill="#707480"/>
</g>
</svg>
