<svg width="24" height="24" viewBox="0 0 24 24" fill="none" xmlns="http://www.w3.org/2000/svg">
<path d="M21.7236 10.5284C20.8522 7.5343 19.8694 5.98726 19.8536 5.9595C19.7976 5.89113 18.4088 4.22923 15.0617 3L14.6194 4.20417C16.2118 4.78898 17.3414 5.50242 17.9627 5.9634C16.1079 5.4095 13.9013 5.07027 11.947 5.07027C9.99273 5.07027 7.78618 5.4095 5.93134 5.9634C6.55258 5.50247 7.68226 4.78898 9.27459 4.20417L8.8323 3C5.48529 4.22923 4.09656 5.89113 4.04054 5.9595C4.02467 5.98726 3.04188 7.5343 2.17048 10.5284C1.33063 13.4138 1.01159 17.4843 1 17.6475C1.07483 17.7645 2.796 20.7031 7.48667 20.7031L8.67562 18.9814C7.34359 18.6277 6.07344 18.0573 4.91074 17.2834L5.62157 16.2155C7.49732 17.464 9.68463 18.124 11.947 18.124C14.2094 18.124 16.3967 17.464 18.2725 16.2155L18.9833 17.2834C17.8207 18.0573 16.5505 18.6277 15.2184 18.9814L16.4074 20.7031C21.0981 20.7031 22.8192 17.7645 22.8941 17.6475C22.8825 17.4843 22.5634 13.4138 21.7236 10.5284ZM8.98116 13.8844H7.6983V11.7463H8.98116V13.8844ZM16.1958 13.8844H14.9129V11.7463H16.1958V13.8844Z" fill="#8F9DF8"/>
</svg>
