<svg width="24" height="24" viewBox="0 0 24 24" fill="none" xmlns="http://www.w3.org/2000/svg">
<path fill-rule="evenodd" clip-rule="evenodd" d="M9.27721 9.27598C9.18394 10.1253 9.13328 11.0298 9.13328 11.9705C9.13328 12.9112 9.18394 13.8158 9.27722 14.6651C10.1263 14.7584 11.0306 14.809 11.9711 14.809C12.912 14.809 13.8168 14.7583 14.6662 14.665C14.7595 13.8157 14.8101 12.9112 14.8101 11.9705C14.8101 11.0299 14.7595 10.1254 14.6662 9.27613C13.8168 9.18281 12.912 9.13213 11.9711 9.13213C11.0306 9.13213 10.1263 9.18276 9.27721 9.27598ZM7.98735 9.45705C7.90974 10.2619 7.86875 11.1045 7.86875 11.9705C7.86875 12.8366 7.90975 13.6792 7.98736 14.4841C7.0289 14.3185 6.1676 14.0957 5.43822 13.8305C4.61486 13.5311 3.99305 13.1895 3.58889 12.8421C3.18268 12.4928 3.05892 12.1962 3.05892 11.9706C3.05892 11.745 3.18268 11.4483 3.58889 11.099C3.99305 10.7516 4.61486 10.41 5.43822 10.1106C6.1676 9.84537 7.02889 9.62266 7.98735 9.45705ZM9.45832 7.98613C10.263 7.90857 11.1053 7.86759 11.9711 7.86759C12.8373 7.86759 13.6801 7.90861 14.4851 7.98625C14.3195 7.02802 14.0968 6.16692 13.8317 5.43767C13.5323 4.61432 13.1907 3.9925 12.8432 3.58834C12.494 3.18213 12.1973 3.05837 11.9717 3.05837C11.7461 3.05837 11.4494 3.18213 11.1002 3.58834C10.7527 3.9925 10.4112 4.61432 10.1118 5.43767C9.84659 6.16688 9.62392 7.02794 9.45832 7.98613ZM15.9561 9.45727C16.0337 10.2621 16.0747 11.1045 16.0747 11.9705C16.0747 12.8365 16.0337 13.679 15.9561 14.4838C16.914 14.3182 17.7749 14.0956 18.5039 13.8305C19.3273 13.5311 19.9491 13.1895 20.3532 12.8421C20.7595 12.4928 20.8832 12.1962 20.8832 11.9706C20.8832 11.745 20.7595 11.4483 20.3532 11.099C19.9491 10.7516 19.3273 10.41 18.5039 10.1106C17.7749 9.84549 16.914 9.62286 15.9561 9.45727ZM14.4851 15.9549C13.6801 16.0325 12.8373 16.0735 11.9711 16.0735C11.1053 16.0735 10.263 16.0325 9.45833 15.955C9.62393 16.9131 9.84659 17.7742 10.1118 18.5034C10.4112 19.3267 10.7527 19.9485 11.1002 20.3527C11.4494 20.7589 11.7461 20.8827 11.9717 20.8827C12.1973 20.8827 12.494 20.7589 12.8432 20.3527C13.1907 19.9485 13.5323 19.3267 13.8317 18.5034C14.0968 17.7741 14.3195 16.9131 14.4851 15.9549ZM8.15041 15.792C6.97569 15.6108 5.9101 15.3476 5.00607 15.0189C4.15107 14.708 3.41052 14.3276 2.85744 13.8786C3.60951 17.489 6.45301 20.3323 10.0636 21.084C9.61458 20.5309 9.23424 19.7904 8.92336 18.9355C8.59469 18.0317 8.33161 16.9664 8.15041 15.792ZM15.793 15.7918C16.9672 15.6106 18.0324 15.3475 18.9361 15.0189C19.7906 14.7082 20.5309 14.328 21.0839 13.8792C20.3317 17.4886 17.4895 20.3311 13.8803 21.0835C14.3291 20.5305 14.7093 19.7902 15.0201 18.9355C15.3487 18.0316 15.6118 16.9663 15.793 15.7918ZM21.0839 10.0619C20.5309 9.61312 19.7906 9.23296 18.9361 8.9222C18.0324 8.59359 16.9672 8.33054 15.793 8.14934C15.6118 6.97483 15.3487 5.90942 15.0201 5.00553C14.7093 4.15086 14.3291 3.41057 13.8803 2.85755C17.4895 3.60999 20.3318 6.45253 21.0839 10.0619ZM8.1504 8.14914C6.97568 8.33034 5.9101 8.59347 5.00607 8.9222C4.15106 9.23312 3.41051 9.61351 2.85742 10.0626C3.60946 6.45209 6.45298 3.60879 10.0636 2.85706C9.61458 3.41012 9.23424 4.15061 8.92336 5.00553C8.59469 5.90937 8.3316 6.97471 8.1504 8.14914Z" fill="#EC8751"/>
</svg>
