<svg width="24" height="24" viewBox="0 0 24 24" fill="none" xmlns="http://www.w3.org/2000/svg">
<path d="M11.9997 8.75017C10.2048 8.75017 8.74969 10.2052 8.74969 12.0002C8.74969 13.7951 10.2048 15.2502 11.9997 15.2502C13.7946 15.2502 15.2497 13.7951 15.2497 12.0002C15.2497 10.2052 13.7946 8.75017 11.9997 8.75017Z" fill="#E05F57"/>
<path fill-rule="evenodd" clip-rule="evenodd" d="M6.76923 3.08164C10.2174 2.69626 13.7821 2.69626 17.2302 3.08164C19.1286 3.29381 20.6598 4.78959 20.8826 6.69464C21.2949 10.2196 21.2949 13.7807 20.8826 17.3057C20.6598 19.2107 19.1286 20.7065 17.2302 20.9187C13.7821 21.3041 10.2174 21.3041 6.76923 20.9187C4.87083 20.7065 3.33964 19.2107 3.11683 17.3057C2.70455 13.7807 2.70455 10.2196 3.11683 6.69464C3.33964 4.78959 4.87083 3.29381 6.76923 3.08164ZM16.9997 6.00017C16.4474 6.00017 15.9997 6.44788 15.9997 7.00017C15.9997 7.55245 16.4474 8.00017 16.9997 8.00017C17.552 8.00017 17.9997 7.55245 17.9997 7.00017C17.9997 6.44788 17.552 6.00017 16.9997 6.00017ZM7.24969 12.0002C7.24969 9.37682 9.37634 7.25017 11.9997 7.25017C14.623 7.25017 16.7497 9.37682 16.7497 12.0002C16.7497 14.6235 14.623 16.7502 11.9997 16.7502C9.37634 16.7502 7.24969 14.6235 7.24969 12.0002Z" fill="#E05F57"/>
</svg>
