<svg width="24" height="24" viewBox="0 0 24 24" fill="none" xmlns="http://www.w3.org/2000/svg">
<path fill-rule="evenodd" clip-rule="evenodd" d="M7.09432 3.29821C10.6579 2.9006 14.3421 2.9006 17.9057 3.29821C19.8677 3.51713 21.4502 5.06041 21.6804 7.02597C22.1065 10.6629 22.1065 14.3371 21.6804 17.974C21.4502 19.9396 19.8677 21.4829 17.9057 21.7018C14.3421 22.0994 10.6579 22.0994 7.09432 21.7018C5.13233 21.4829 3.54985 19.9396 3.31957 17.974C2.89348 14.3371 2.89348 10.6629 3.31957 7.02597C3.54985 5.06041 5.13233 3.51713 7.09432 3.29821ZM17.0583 9.38413L17.9258 8.5557L17.9252 8.37294H14.9262L12.7887 13.697L10.3571 8.37362H7.21142V8.5557L8.22499 9.77383C8.27399 9.81786 8.3119 9.87281 8.33564 9.93422C8.35937 9.99563 8.36827 10.0618 8.36161 10.1272V14.9158C8.37615 15.0009 8.37045 15.0882 8.34496 15.1707C8.31948 15.2532 8.27492 15.3286 8.21489 15.3908L7.07413 16.7715V16.9529H10.306V16.7715L9.16586 15.3908C9.10534 15.3287 9.05977 15.2536 9.0326 15.1713C9.00543 15.089 8.99738 15.0016 9.00905 14.9158V10.7749L11.8458 16.9536H12.1756L14.6119 10.7749V15.6999C14.6119 15.8302 14.6119 15.8557 14.5258 15.9417L13.6488 16.791V16.9724H17.9043V16.791L17.0583 15.9619C17.0218 15.934 16.9935 15.8967 16.9765 15.8539C16.9596 15.8112 16.9546 15.7647 16.9621 15.7193V9.62668C16.9546 9.58134 16.9596 9.53481 16.9765 9.49209C16.9935 9.44936 17.0218 9.41204 17.0583 9.38413Z" fill="#59BA36"/>
</svg>
