<svg width="24" height="24" viewBox="0 0 24 24" fill="none" xmlns="http://www.w3.org/2000/svg">
<path fill-rule="evenodd" clip-rule="evenodd" d="M18.4823 19.79L18.483 19.7883L18.5004 19.7448L21.4992 4.62574V4.57663C21.4992 4.19993 21.36 3.87107 21.0571 3.67381C20.792 3.50115 20.4873 3.48885 20.2736 3.50508C20.0476 3.52223 19.8344 3.57865 19.6869 3.62561C19.611 3.64977 19.5475 3.67304 19.502 3.69065C19.4792 3.69949 19.4608 3.70699 19.4473 3.71257L19.4341 3.71813L2.71429 10.2771L2.70968 10.2787C2.70065 10.282 2.68871 10.2865 2.67429 10.2921C2.64553 10.3033 2.60639 10.3193 2.56041 10.3401C2.47013 10.381 2.3454 10.4442 2.21889 10.5308C2.00404 10.6779 1.59493 11.0263 1.66401 11.5785C1.72123 12.0359 2.03653 12.3264 2.2491 12.4768C2.36305 12.5574 2.47206 12.6156 2.55189 12.6536C2.59234 12.6728 2.6267 12.6876 2.65228 12.698C2.66511 12.7032 2.67584 12.7074 2.68414 12.7105L2.69476 12.7145L2.70156 12.717L5.6268 13.7018C5.61692 13.8854 5.63513 14.0725 5.6838 14.2571L7.14908 19.8155C7.32282 20.4746 7.91905 20.9337 8.60062 20.9332C9.21155 20.9327 9.75337 20.5632 9.98356 20.0117L12.2712 17.5657L16.2002 20.5779L16.2561 20.6023C16.6131 20.758 16.9466 20.8074 17.2515 20.7657C17.556 20.7241 17.798 20.5965 17.9797 20.451C18.1586 20.3079 18.2812 20.1464 18.3582 20.0248C18.3974 19.9631 18.4266 19.9088 18.4469 19.8679C18.457 19.8474 18.465 19.83 18.4711 19.8165L18.4786 19.7991L18.4813 19.7926L18.4823 19.79ZM7.1342 13.8748C7.1009 13.7484 7.15318 13.6151 7.26346 13.545L17.1855 7.24413C17.1855 7.24413 17.7691 6.88984 17.7482 7.24413C17.7482 7.24413 17.8524 7.3067 17.5396 7.59843C17.243 7.8755 10.468 14.4166 9.78242 15.0784C9.74285 15.1167 9.71923 15.1605 9.70529 15.2137L8.59948 19.4332L7.1342 13.8748Z" fill="#5AB3F0"/>
</svg>
