<svg width="24" height="24" viewBox="0 0 24 24" fill="none" xmlns="http://www.w3.org/2000/svg">
<path d="M21.8098 6.22687C21.8677 6.1461 21.7821 6.04181 21.6894 6.07774C21.0307 6.33307 20.3423 6.50534 19.64 6.59023C20.4219 6.12311 21.0253 5.41203 21.3599 4.57017C21.394 4.48441 21.3003 4.40782 21.2195 4.45243C20.4928 4.85377 19.7091 5.14277 18.8949 5.30921C18.8608 5.31617 18.8257 5.30457 18.8018 5.27933C18.1908 4.63465 17.3866 4.20541 16.5098 4.05709C15.6147 3.90564 14.6946 4.05559 13.8938 4.48342C13.0931 4.91125 12.457 5.59276 12.0853 6.42107C11.7319 7.20863 11.6365 8.08654 11.8108 8.92967C11.8243 8.99509 11.7731 9.05685 11.7065 9.05271C10.1224 8.95432 8.57469 8.53299 7.15868 7.8141C5.74627 7.09702 4.49554 6.09946 3.48267 4.88293C3.43772 4.82894 3.35252 4.83593 3.31977 4.89808C3.0046 5.49615 2.83958 6.16274 2.84003 6.84023C2.83875 7.51462 3.00425 8.17885 3.32178 8.7738C3.63932 9.36875 4.09905 9.87594 4.66003 10.2502C4.0651 10.234 3.48178 10.087 2.95128 9.82031C2.88291 9.78594 2.8009 9.83487 2.80446 9.91131C2.84583 10.8005 3.17228 11.6933 3.73734 12.3782C4.33866 13.1071 5.17328 13.6059 6.10003 13.7902C5.74328 13.8988 5.3729 13.956 5.00003 13.9602C4.79709 13.9579 4.59454 13.9429 4.39356 13.9154C4.31904 13.9052 4.2582 13.976 4.28428 14.0465C4.5607 14.794 5.04903 15.4463 5.6911 15.9224C6.37755 16.4314 7.2056 16.7138 8.06003 16.7302C6.61723 17.8655 4.83591 18.4851 3.00003 18.4902C2.81138 18.4909 2.62282 18.4847 2.43471 18.4719C2.3287 18.4647 2.27995 18.6059 2.37132 18.6602C4.16009 19.7217 6.20462 20.2828 8.29003 20.2802C9.82972 20.2962 11.3572 20.0053 12.7831 19.4243C14.2091 18.8434 15.5051 17.9841 16.5952 16.8967C17.6854 15.8093 18.548 14.5156 19.1326 13.0911C19.7172 11.6667 20.0121 10.14 20 8.60023V8.1204C20 8.08883 20.015 8.05914 20.0402 8.04012C20.7184 7.52798 21.3149 6.91654 21.8098 6.22687Z" fill="#4BA6EE"/>
</svg>
